<svg width="798" height="137" viewBox="0 0 798 137" fill="none" xmlns="http://www.w3.org/2000/svg">
<path d="M33.5 59.9988C32.3 56.4988 31.4 53.5988 31 51.3988H30.9C30.3 53.7988 29.4 56.5988 28.1 59.8988L21.2 78.6988H40L33.5 59.9988ZM50.5 105.799L43.5 87.9988H17.6L11 105.799H0L27 35.7988H34.7L62.4 105.799H50.5Z" fill="#1A427A"/>
<path d="M90.6002 45.6H82.4002V96.2H90.6002C110 96.2 117.2 84 117.2 70.3C117.2 56.2 108.6 45.6 90.6002 45.6ZM90.0002 105.8H71.2002V36H90.4002C116.2 36 128.9 50.2 128.9 70.2C128.9 90.7 115.3 105.8 90.0002 105.8Z" fill="#1A427A"/>
<path d="M153.6 36H142.5V105.8H153.6V36Z" fill="#1A427A"/>
<path d="M187.9 75H178.5V96.3H187.4C196.4 96.3 201 91.8 201 85.2C201 79.2 196.1 75 187.9 75ZM178.5 45.6V65.4H186.4C191.6 65.4 196.7 61.6 196.7 55.2C196.7 49.4 193.2 45.6 185.6 45.6H178.5ZM187.9 105.8H167.4V36H188.6C202 36 208.1 44.9 208.1 53.2C208.1 59.7 205 65.4 199.2 68V68.1C206.5 69.7 212.6 76.4 212.6 85.1C212.5 94.8 205.8 105.8 187.9 105.8Z" fill="#1A427A"/>
<path d="M585.7 102.699C582.2 102.699 580.4 99.7988 580.4 93.9988C580.4 87.9988 582.2 84.9988 585.7 84.9988C589.3 84.9988 591 87.9988 591 94.0988C591.1 99.7988 589.3 102.699 585.7 102.699ZM585.7 81.2988C579.9 81.2988 576.3 85.7988 576.1 93.2988C576.1 93.2988 576.2 96.9988 575.4 99.0988C574.6 101.099 572.9 102.399 570.9 102.399H461.8V83.0988C454.3 82.9988 448.2 83.4988 448.2 93.8988V102.399H430C430 102.399 430.7 97.1988 432.1 94.2988C434.6 88.8988 438.3 88.4988 441.9 88.4988V84.6989C434.4 84.5989 430.4 87.5988 427.7 94.3988C426 98.8988 425.5 103.799 425.2 106.699H452.6V94.8988C452.6 88.0988 455.3 87.7988 457.6 87.7988V106.699H571.4C574.8 106.699 576.9 104.899 578.2 102.899C579.9 105.399 582.5 106.699 585.7 106.699C591.9 106.699 595.5 102.099 595.5 94.0988C595.5 85.9988 591.8 81.2988 585.7 81.2988Z" fill="#1A427A"/>
<path d="M564.4 56.3H553.4C554.6 52.8 557.8 41.9 565.5 41.9C569 41.9 570.5 45.4 570.5 48.2C570.5 52.3 569 56.3 564.4 56.3ZM565.7 38C559.2 38 555.3 43.7 553 48.8V48.7L553.6 31H549.3V56.3H529.1C525.5 56.3 523.3 54.6 523.3 51.5V39.8H519V51.3C519 54.4 517.1 56.2 513.9 56.2H462.1V36.9C454.6 36.8 448.5 37.3 448.5 47.7V56.2H430.3C430.3 56.2 431 51 432.4 48.1C434.9 42.7 438.6 42.3 442.2 42.3V38.5C434.7 38.4 430.7 41.4 428 48.1C426.2 52.6 425.8 57.5 425.5 60.4H452.9V48.6C452.9 41.8 455.6 41.5 457.9 41.5V60.4H515V60.3C517.8 60.1 520 59 521.5 57.1C523.1 59.1 525.7 60.2 529 60.3H564.4C572.8 60.3 574.9 52.3 574.9 48.2C574.8 43.8 572.1 38 565.7 38Z" fill="#1A427A"/>
<path d="M779.4 106.499H768.8V102.299H773.1V73.7988H777.5V102.299H779.3C781.1 102.299 782.8 100.899 783.5 99.0988C784.2 97.1988 784.2 95.2989 784.2 93.1989V73.7988H788.5V96.2988C788.5 102.699 784.5 106.499 779.4 106.499Z" fill="#1A427A"/>
<path d="M797.6 73.7988H793.3V106.499H797.6V73.7988Z" fill="#1A427A"/>
<path d="M759.6 85.7988V96.3988C759.6 101.299 758.7 102.399 756 102.399H751.4V85.7988H747.1V102.399H738.9V85.7988H734.7V102.399H627.4C624.4 102.399 622.1 100.999 622.1 99.1989C622.1 97.8989 622.1 73.8988 622.1 73.8988H617.8V93.2988C617.8 99.2988 616.1 102.299 612.9 102.299H611.1V73.7988H606.7V102.299H602.4V106.499H613C615.8 106.499 618.1 105.499 619.8 103.299C621.6 105.499 624.1 106.499 627.4 106.499H756.1C760.9 106.499 763.9 103.699 763.9 98.4988V85.7988H759.6Z" fill="#1A427A"/>
<path d="M594.1 56.3H589C585.4 56.3 584 52.1 584 49.1C584 46 584.9 40.9 589 40.9H594.1V56.3ZM624.9 39.8V50.3C624.9 54.1 623.1 56.3 619.1 56.3H598.4V37H588.9C583.2 37 579.6 40.9 579.6 49.1C579.6 57.6 585 60.5 588.9 60.5H593.9C593.9 62.8 591.9 65.6 589.2 65.7V69.5H589.3C594 69.5 597.8 66.1 598.3 60.5V60.4H620.6C621 60.4 629.1 59.7 629.1 50.5V39.8H624.9Z" fill="#1A427A"/>
<path d="M634 27.7996H638.3V60.4996H634V27.7996ZM630.4 24.9996V22.5996H632.6V22.0996C632.6 20.8996 632.9 17.0996 636.6 17.0996C638.7 17.0996 639.7 18.1996 640.4 20.0996H637.8C637.5 19.5996 637.2 19.3996 636.6 19.3996C635.3 19.3996 635 20.8996 635 21.9996V22.5996H640.7V24.9996H630.4Z" fill="#1A427A"/>
<path d="M674.9 40.7C671.4 40.7 669.6 43.1 669.6 48.9C669.6 54.5 671.4 56.3 674.9 56.3C678.3 56.3 680.2 54.4 680.2 49C680.1 43 678.4 40.7 674.9 40.7ZM674.9 60.4H661.9C655.6 60.4 651.9 56.6 651.9 50.5V39.8H656.2V50.3C656.2 54.1 658 56.3 661.9 56.3H667.2C665.9 54.2 665.3 52.4 665.3 48.9C665.3 41.2 669 37 675 37C681 37 684.6 41.2 684.6 49C684.5 56.8 680.9 60.4 674.9 60.4Z" fill="#1A427A"/>
<path d="M787.8 56.6992C784.3 56.6992 782.5 53.7992 782.5 47.9992C782.5 41.9992 784.3 38.9992 787.8 38.9992C791.4 38.9992 793.1 41.9992 793.1 48.0992C793.1 53.7992 791.3 56.6992 787.8 56.6992ZM757.4 56.2992H745.8C747 52.6992 750.2 41.8992 757.9 41.8992C761.4 41.8992 762.9 45.3992 762.9 48.1992C762.9 52.1992 761.5 56.2992 757.4 56.2992ZM787.8 35.1992C782 35.1992 778.4 39.6992 778.1 47.1992C778.1 47.1992 778.2 50.8992 777.4 52.9992C776.5 54.9992 774.9 56.2992 772.9 56.2992H764.8C766.5 53.6992 767.1 50.4992 767.1 48.3992C767.1 43.7992 764.4 38.0992 758 38.0992C751.5 38.0992 747.6 43.7992 745.3 48.6992V41.9992H741.1V56.2992H701.3C697.9 56.2992 695.6 54.6992 695.6 51.7992V39.7992H691.3V56.4992C691.3 57.8992 691.5 60.3992 690.6 62.2992C689.8 64.1992 688 65.4992 686.4 65.5992V69.3992C692.3 69.5992 695.6 64.5992 695.6 59.1992V58.7992C697.1 59.6992 699 60.2992 701.3 60.2992H773.7C776 60.2992 778.8 58.5992 780.1 56.4992C781.8 58.9992 784.4 60.2992 787.6 60.2992C793.8 60.2992 797.4 55.6992 797.4 47.6992C797.6 39.9992 793.9 35.1992 787.8 35.1992Z" fill="#1A427A"/>
<path d="M439.7 67.0988C439.7 68.3988 438.7 69.3988 437.4 69.3988C436.1 69.3988 435.1 68.3988 435.1 67.0988C435.1 65.7988 436.1 64.7988 437.4 64.7988C438.6 64.7988 439.7 65.7988 439.7 67.0988Z" fill="#1A427A"/>
<path d="M446.1 67.0988C446.1 68.3988 445.1 69.3988 443.8 69.3988C442.5 69.3988 441.5 68.3988 441.5 67.0988C441.5 65.7988 442.5 64.7988 443.8 64.7988C445.1 64.7988 446.1 65.7988 446.1 67.0988Z" fill="#1A427A"/>
<path d="M523.3 67.0988C523.3 68.3988 522.3 69.3988 521 69.3988C519.7 69.3988 518.7 68.3988 518.7 67.0988C518.7 65.7988 519.7 64.7988 521 64.7988C522.3 64.7988 523.3 65.7988 523.3 67.0988Z" fill="#1A427A"/>
<path d="M629.1 67.0988C629.1 68.3988 628.1 69.3988 626.8 69.3988C625.5 69.3988 624.5 68.3988 624.5 67.0988C624.5 65.7988 625.5 64.7988 626.8 64.7988C628.1 64.7988 629.1 65.7988 629.1 67.0988Z" fill="#1A427A"/>
<path d="M567 29.8996C567 31.1996 566 32.1996 564.7 32.1996C563.4 32.1996 562.4 31.1996 562.4 29.8996C562.4 28.5996 563.4 27.5996 564.7 27.5996C565.9 27.6996 567 28.6996 567 29.8996Z" fill="#1A427A"/>
<path d="M677.1 29.8996C677.1 31.1996 676.1 32.1996 674.8 32.1996C673.5 32.1996 672.5 31.1996 672.5 29.8996C672.5 28.5996 673.5 27.5996 674.8 27.5996C676.1 27.6996 677.1 28.6996 677.1 29.8996Z" fill="#1A427A"/>
<path d="M439.7 113.3C439.7 114.6 438.7 115.6 437.4 115.6C436.1 115.6 435.1 114.6 435.1 113.3C435.1 112 436.1 111 437.4 111C438.6 111 439.7 112 439.7 113.3Z" fill="#1A427A"/>
<path d="M446.1 113.3C446.1 114.6 445.1 115.6 443.8 115.6C442.5 115.6 441.5 114.6 441.5 113.3C441.5 112 442.5 111 443.8 111C445.1 111 446.1 112 446.1 113.3Z" fill="#1A427A"/>
<path d="M768.7 115.999V113.699H770.8V113.199C770.8 111.999 771.1 108.199 774.8 108.199C777 108.199 777.9 109.299 778.6 111.199H776C775.7 110.699 775.4 110.499 774.8 110.499C773.5 110.499 773.3 111.899 773.3 113.099V113.699H779V115.999H768.7Z" fill="#1A427A"/>
<path d="M318.8 135.9C356.19 135.9 386.5 105.59 386.5 68.2C386.5 30.8103 356.19 0.5 318.8 0.5C281.41 0.5 251.1 30.8103 251.1 68.2C251.1 105.59 281.41 135.9 318.8 135.9Z" stroke="#F4F4F4" stroke-miterlimit="10"/>
<path d="M349.3 128.5C311.5 117.2 303.8 86.7 303.8 86.7C303.8 86.7 291.9 73.2 291.9 72.2C291.9 71.2 278.6 55.7 278.6 55.7L275.3 48H258.4L253 52.9C251.8 57.9 251.2 63.1 251.1 68.4C251.2 105.7 281.5 135.9 318.8 135.9C329.8 135.9 340.2 133.2 349.5 128.6C349.4 128.6 349.4 128.6 349.3 128.5Z" fill="#06679A"/>
<path d="M327.3 1.49844C327.1 1.49844 326.9 1.39844 326.7 1.39844C326.1 1.29844 325.5 1.29843 325 1.19843C323 0.998425 321 0.898438 319 0.898438H318.9C290.9 0.898438 266.8 17.9984 256.5 42.2984C256.1 43.1984 255.7 44.1984 255.4 45.1984C255.3 45.3984 255.3 45.4984 255.2 45.6984C254.9 46.4984 254.6 47.3984 254.3 48.1984C254.2 48.3984 254.2 48.5984 254.1 48.7984C253.8 49.5984 253.6 50.4984 253.4 51.2984C253.4 51.4984 253.3 51.6984 253.2 51.8984C253.2 52.0984 253.1 52.1984 253.1 52.3984L253.2 52.9984L260.1 62.8984C266.8 70.7984 278.6 81.1984 296.8 85.4984C296.9 85.4984 297 85.4984 297.1 85.5984C297.7 85.6984 298.4 85.8984 299 85.9984C300.2 86.1984 301.4 86.3984 302.7 86.5984L303 86.6985C303.3 86.6985 303.5 86.7984 303.8 86.7984V86.6985L310.7 71.7984L317 51.5984L330.5 23.0984L335.2 3.09842C332.7 2.39842 330 1.79844 327.3 1.49844Z" fill="url(#paint0_linear_2037_28406)"/>
<path d="M377.3 34.3984L363.8 37.9984L338.8 53.6984L314.3 75.1984L303.9 86.7984C303.9 86.7984 311.6 117.298 349.4 128.598C349.5 128.598 349.6 128.598 349.7 128.598C370.9 117.798 385.7 96.0984 386.7 70.8984C386.7 70.5984 386.7 70.1984 386.7 69.8984C386.7 69.3984 386.7 68.9984 386.7 68.4984C386.5 55.9984 383.1 44.3984 377.3 34.3984Z" fill="#21AAE2"/>
<path d="M371.1 51C377.7 43.1 380.4 42 381.1 41.9C372.8 22.7 355.9 8.1 335.2 3C283.4 35.2 303.8 86.6 303.8 86.6C326.7 88.7 343.8 81.6 356 72.5C358.9 70.3 359.2 60.3 361.5 58C363.8 55.8 369.3 53.1 371.1 51Z" fill="url(#paint1_linear_2037_28406)"/>
<path d="M386.5 65.4984C386.5 65.3984 386.5 65.2984 386.5 65.0984C384.6 29.2984 355.1 0.898438 318.9 0.898438C305.6 0.898438 293.2 4.69843 282.8 11.2984C283.6 10.8984 284.4 10.3984 285.3 9.99844C290.4 7.79844 295.8 6.09842 301.4 5.09842C318.1 2.89842 336.9 8.29842 352.5 20.5984L315.8 16.2984L356.4 30.5984L299.7 46.3984L355.9 40.0984L314.2 78.4984L359.6 48.2984L339.7 106.298L370.3 54.2984L368.9 88.6985L378.9 57.3984C382.1 67.5984 383.1 77.9984 381.6 87.5984C380.3 94.2984 377.9 100.598 374.9 106.498C374.5 107.198 374 107.898 373.6 108.598C381.2 98.1984 385.5 86.0984 386.5 73.7984C386.5 73.4984 386.5 73.1984 386.6 72.9984C386.6 72.3984 386.7 71.7984 386.7 71.1984C386.7 70.5984 386.7 69.9984 386.7 69.4984C386.7 69.0984 386.7 68.6984 386.7 68.2984C386.6 67.2984 386.5 66.3984 386.5 65.4984Z" fill="white"/>
<defs>
<linearGradient id="paint0_linear_2037_28406" x1="253.089" y1="43.8312" x2="335.3" y2="43.8312" gradientUnits="userSpaceOnUse">
<stop stop-color="#1387C8"/>
<stop offset="1" stop-color="#24AFE3"/>
</linearGradient>
<linearGradient id="paint1_linear_2037_28406" x1="299.838" y1="44.9251" x2="381.044" y2="44.9251" gradientUnits="userSpaceOnUse">
<stop stop-color="#CAE2F4"/>
<stop offset="1" stop-color="#18B7D8"/>
</linearGradient>
</defs>
</svg>
