<svg width="256" height="127" viewBox="0 0 256 127" fill="none" xmlns="http://www.w3.org/2000/svg">
<path d="M59.8489 0.118382C60.1212 0.0899956 60.394 0.0693362 60.6674 0.0564026C76.6132 -0.617488 92.2236 4.76742 104.362 15.1294C109.346 19.4034 112.75 23.5047 117.341 27.7076C114.305 30.5148 111.634 33.6428 108.688 36.4811C104.935 40.0556 101.239 43.69 97.6018 47.3828C96.2011 48.784 93.2714 51.5679 92.1248 53.0059C90.2328 50.7383 84.5684 45.1703 82.2808 43.07C76.837 38.0773 69.6279 35.4598 62.2489 35.7971C54.8717 36.0751 47.9096 39.2825 42.9039 44.7089C37.8323 50.2105 35.2114 57.5355 35.642 65.0057C36.0281 72.6623 39.1839 78.9841 44.8661 84.1152C53.0517 91.6111 64.9468 93.4381 75.0048 88.7441C81.9353 85.5231 90.2656 75.9842 95.932 70.3046L129.661 36.6773C133.846 32.4011 138.059 28.1527 142.299 23.9322C147.361 18.8694 151.987 14.1152 158.026 10.2103C167.489 4.07926 178.414 0.580129 189.676 0.0725277C215.76 -1.20286 240.833 14.7145 250.817 38.8896C260.255 61.7471 256.025 87.6499 239.344 106.048C228.275 118.34 212.8 125.763 196.287 126.702C194.376 126.786 192.464 126.809 190.551 126.772C174.957 126.461 159.28 119.961 148.262 108.952C144.973 105.666 141.627 102.433 138.404 99.0809C139.536 98.2197 140.585 97.2149 141.607 96.2264C147.677 90.3589 153.319 84.0843 159.47 78.2994C160.792 77.0555 162.547 75.4426 163.661 74.0309C165.144 75.7416 167.271 77.6249 168.898 79.2449C170.679 80.9869 172.4 82.9293 174.278 84.5553C187.057 95.6261 206.787 92.6982 215.827 78.4071C219.067 73.2839 220.628 67.474 220.139 61.473C219.499 53.8388 215.839 46.7757 209.972 41.8506C201.388 34.6165 187.65 33.936 178.061 39.6194C174.262 41.8714 171.87 44.6998 168.829 47.7755L160.989 55.6418L134.628 81.8406C129.026 87.4529 123.6 93.2253 117.828 98.7021C111.319 104.936 105.928 111.588 98.2726 116.552C58.4445 142.383 5.032 117.144 0.329714 69.746C-1.11683 55.1629 2.19937 41.5653 10.2202 29.1264C21.4815 11.6622 39.2267 1.75944 59.8489 0.118382Z" fill="#E9E9E9"/>
</svg>
