<svg width="384" height="160" viewBox="0 0 384 160" fill="none" xmlns="http://www.w3.org/2000/svg">
<path d="M88.0884 50.8872C91.2987 50.3857 95.4949 51.2861 98.46 52.5595C109.94 57.4892 114.282 72.146 107.566 82.6793C104.608 87.3494 99.9148 90.6521 94.5196 91.8594C88.958 93.0618 83.3464 92.0419 78.5381 89.0356C77.3462 88.2903 76.6582 87.5199 75.5002 86.7722C75.2871 87.0467 75.3973 87.6698 75.4134 88.103C75.4964 92.1348 75.4365 96.1968 75.4649 100.231C75.4818 102.593 75.5434 105.061 75.3439 107.407C75.2002 109.094 73.3166 110.354 71.6955 110.038C70.4518 109.809 69.6588 108.606 69.0225 107.622C68.7049 101.769 68.9431 93.6872 68.9369 87.6928L68.9311 77.3775C68.9314 74.1843 68.7971 71.1141 69.4019 67.9591C71.2862 58.1296 78.3236 51.9922 88.0884 50.8872ZM91.7196 86.0344C99.6841 85.0478 105.355 77.8137 104.412 69.8452C103.468 61.8766 96.2635 56.1672 88.2889 57.068C80.2536 57.9757 74.4904 65.2464 75.4413 73.2756C76.3923 81.3048 83.6946 87.0283 91.7196 86.0344Z" fill="#821168"/>
<path d="M201.608 33.0273C202.801 33.0665 203.316 33.3095 204.375 33.7651C204.967 35.2587 205.078 36.6006 205.07 38.1968C205.02 49.1173 205.046 60.0396 205.038 70.9601C205.035 77.1253 203.292 82.218 198.782 86.5678C194.781 90.392 189.43 92.4763 183.896 92.3643C177.122 92.2174 172.775 89.6848 168.249 84.9528C165.782 82.3463 163.44 76.297 163.387 72.7531C163.093 53.151 184.499 43.8273 198.994 56.6931C198.765 49.9476 198.924 41.7563 198.984 34.9443C199.807 33.6782 200.139 33.3325 201.608 33.0273ZM185.971 86.0471C193.964 85.1156 199.693 77.8886 198.774 69.895C197.858 61.9013 190.64 56.1603 182.643 57.0635C174.627 57.9692 168.868 65.2079 169.787 73.2216C170.707 81.2353 177.957 86.9813 185.971 86.0471Z" fill="#821168"/>
<path d="M229.782 50.7767C241.227 49.846 251.27 58.3453 252.243 69.7858C253.217 81.2264 244.753 91.2993 233.314 92.3145C221.816 93.3352 211.677 84.8191 210.699 73.3186C209.721 61.818 218.277 51.7122 229.782 50.7767ZM233.378 86.0176C241.326 84.9714 246.94 77.7081 245.949 69.7542C244.958 61.8002 237.732 56.1365 229.771 57.0726C221.73 58.0176 215.998 65.3285 216.999 73.3609C217.999 81.3933 225.352 87.0743 233.378 86.0176Z" fill="#821168"/>
<path d="M135.402 50.7858C146.849 49.8463 156.899 58.3433 157.874 69.7857C158.85 81.2282 150.383 91.3029 138.942 92.3139C127.451 93.3292 117.32 84.8181 116.341 73.325C115.361 61.832 123.905 51.7295 135.402 50.7858ZM138.561 86.0559C146.623 85.2495 152.479 78.024 151.597 69.9716C150.716 61.9191 143.435 56.1312 135.39 57.0877C127.45 58.0314 121.754 65.1952 122.624 73.1424C123.494 81.0895 130.605 86.8516 138.561 86.0559Z" fill="#821168"/>
<path d="M79.3603 0.832168C83.2345 0.820453 86.0577 1.55982 89.1528 4.09441C91.9845 6.39644 93.7726 9.73945 94.1153 13.3724C94.9252 21.8214 89.1523 28.4554 80.7624 29.1735C76.6052 29.1677 73.4258 28.2208 70.2979 25.332C67.553 22.8166 65.9307 19.3064 65.7935 15.586C65.6487 11.7515 67.0319 8.01622 69.6393 5.20052C72.1734 2.51496 75.6693 0.94399 79.3603 0.832168Z" fill="#821168"/>
<path d="M348.843 50.7767C350.486 50.6663 351.48 51.201 352.233 52.7257C353.824 55.943 355.133 59.3521 356.509 62.6714L364.135 80.9462C365.73 77.466 375.539 52.728 376.736 51.5851C376.757 51.5653 376.777 51.546 376.8 51.5263C377.383 50.9817 378.389 50.8544 379.146 50.6738L379.275 50.7209C381.79 51.6514 382.462 52.663 381.569 55.2134C380.572 58.0541 379.339 60.8291 378.183 63.611L371.765 79.1156C368.718 87.2134 364.808 95.2235 361.673 103.319C361.034 104.966 360.275 106.829 359.415 108.361C357.457 111.841 352.551 109.53 353.947 105.779C354.693 103.533 355.579 101.557 356.492 99.407C357.953 96.0123 359.359 92.5931 360.706 89.1512C356.147 77.6052 350.902 66.1948 346.422 54.6128C345.615 52.5223 347.162 51.513 348.843 50.7767Z" fill="#821168"/>
<path d="M276.862 50.8885C281.438 50.1934 287.08 51.9233 290.771 54.5871C292.219 55.6325 293.612 56.7038 293.211 58.7263C293.051 59.569 292.562 60.3133 291.852 60.7943C289.398 62.4265 287.421 59.6775 285.388 58.6082C284.29 58.0302 282.772 57.4965 281.563 57.2415C277.818 56.4752 273.92 57.2194 270.722 59.3123C267.555 61.3758 265.312 64.4771 264.499 68.1754C261.639 81.2113 275.543 91.1461 286.86 83.5308C287.556 82.9872 288.496 82.2453 289.373 82.0932C292.454 81.4056 294.421 84.7647 292.403 87.094C289.791 90.1102 284.668 91.7844 280.917 92.232C275.483 92.8799 270.015 91.3224 265.739 87.9083C261.295 84.4263 258.443 79.2998 257.828 73.6881C256.912 65.6514 261.212 57.5755 268.093 53.5594C271.154 51.7713 273.358 51.2763 276.862 50.8885Z" fill="#821168"/>
<path d="M324.593 33.1873C324.936 33.1414 325.281 33.1142 325.627 33.1061C329.763 33.0402 328.824 37.7965 328.816 40.6511L328.813 50.6488C329.178 50.631 329.543 50.6162 329.911 50.605C332.74 50.5167 338.954 50.1394 337.784 54.756C337.018 57.778 331.168 56.9795 328.801 56.913C328.845 62.2512 328.058 78.2544 329.875 82.2988C330.542 83.7823 331.826 84.7637 333.308 85.3486C335.354 86.1555 338.83 85.7439 340.213 87.5903C340.895 88.5017 340.756 89.6182 340.608 90.6713C340.503 90.7888 340.394 90.9031 340.282 91.0143C337.155 94.0969 329 91.381 326.292 88.5002C321.947 83.8779 322.678 77.0752 322.674 71.2422C322.654 66.4729 322.665 61.7034 322.712 56.9343C322.341 56.9417 321.548 56.921 321.2 56.9538C317.075 57.3417 314.433 53.0098 318.985 51.0033C320.281 50.4311 321.363 50.5535 322.824 50.5808C322.387 47.4492 322.697 38.8004 322.839 35.2498C322.871 34.4414 323.941 33.6285 324.593 33.1873Z" fill="#821168"/>
<path d="M50.6346 12.6153C55.7739 12.3602 60.1639 16.2818 60.4872 21.4164C60.8104 26.5511 56.9468 30.9921 51.8164 31.3835C48.4365 31.6413 45.1793 30.0606 43.2909 27.246C41.4025 24.4313 41.1751 20.8184 42.6954 17.7892C44.216 14.76 47.2491 12.7833 50.6346 12.6153Z" fill="#821168"/>
<path d="M304.913 50.7757C306.462 50.6949 308.124 51.7945 308.134 53.4816C308.205 65.5837 308.244 77.7062 308.124 89.8078C308.107 91.6 306.901 91.8679 305.473 92.4356C304.847 92.3695 304.291 92.2164 303.715 91.9644C303.091 91.6907 302.518 91.2367 302.282 90.5741C301.761 89.1076 301.894 53.3441 302.274 52.5602C302.808 51.4556 303.826 51.1202 304.913 50.7757Z" fill="#821168"/>
<path d="M29.08 25.3941C31.7787 24.6977 34.6435 25.5061 36.5795 27.5106C38.5157 29.5153 39.2241 32.406 38.434 35.0784C37.644 37.7508 35.4775 39.7919 32.7626 40.4217C28.636 41.3791 24.5065 38.8405 23.4984 34.7264C22.4903 30.6125 24.9782 26.4527 29.08 25.3941Z" fill="#821168"/>
<path d="M14.7047 39.4162C16.5981 38.7908 18.6817 39.2395 20.1497 40.5889C21.6177 41.9382 22.2399 43.9766 21.7756 45.9155C21.3115 47.8544 19.8335 49.3902 17.9136 49.9284C15.0372 50.735 12.043 49.0971 11.171 46.2404C10.2989 43.3834 11.8681 40.3532 14.7047 39.4162Z" fill="#821168"/>
<path d="M6.79266 53.0313C9.12164 52.9614 11.0775 54.7695 11.1903 57.0965C11.3031 59.4234 9.53128 61.4121 7.20647 61.5678C5.66392 61.6713 4.18575 60.9336 3.34084 59.6392C2.49592 58.3446 2.41594 56.6948 3.13169 55.3247C3.84742 53.9545 5.24734 53.0775 6.79266 53.0313Z" fill="#821168"/>
<path d="M303.753 38.4417C305.709 38.2366 307.583 38.3484 308.584 40.3664C309.032 41.2934 309.099 42.3593 308.769 43.3352C308.26 44.8526 307.448 45.2333 306.14 45.8943C305.561 46.0985 305.25 46.1045 304.647 46.006C302.196 45.6058 300.948 43.2462 301.559 40.9129C301.926 39.5098 302.552 39.1353 303.753 38.4417Z" fill="#821168"/>
<path d="M132.472 160C126.266 156.414 118.083 154.318 111.16 152.745C104.328 151.193 97.276 150.535 90.411 149.11C60.0041 142.798 22.7697 128.919 13.6216 95.6997C5.24067 66.1267 29.7474 47.4734 55.4276 41.1191C65.8688 38.5355 76.4544 36.9988 87.261 37.0943C90.278 37.1073 91.8608 36.7773 95.1026 37.2491C73.6087 38.8881 46.1638 45.4839 30.8974 61.888C18.0498 75.6929 29.2218 91.3789 40.7387 101.239C50.6952 109.763 62.7548 115.358 75.6262 117.976C80.382 118.935 86.3189 119.721 91.1456 120.488C108.374 123.225 120.151 127.502 128.666 143.829C130.858 148.032 133.322 153.639 134.299 158.414C134.395 158.887 134.141 159.554 133.959 160H132.472Z" fill="#821168"/>
</svg>
