<svg width="30" height="36" viewBox="0 0 30 36" fill="none" xmlns="http://www.w3.org/2000/svg">
<path d="M8.93341 26.9018L4.8084 22.93L3.451 24.3112C3.17197 23.6243 2.96836 22.9151 2.85525 22.1909C2.41786 19.3912 3.23985 16.4273 5.34382 14.2174C5.38153 14.1801 5.41924 14.1428 5.45694 14.1055L10.7885 8.67784C11.5276 7.92379 11.5125 6.72181 10.7508 5.99763C9.98917 5.26598 8.77505 5.28091 8.04355 6.03495L2.71197 11.4626C-0.975655 15.2104 -0.892702 21.2353 2.90049 24.8786L7.0255 28.8504L8.93341 26.9018Z" fill="#8CEBD1"/>
<path d="M19.0312 16.6192L13.6996 22.0468C11.9576 23.8162 9.31818 24.2268 7.16895 23.2488C6.58828 22.9875 6.04532 22.6217 5.57023 22.1588C3.33805 20.0086 3.24756 16.4773 5.35154 14.2227C3.24756 16.4251 2.41803 19.389 2.86296 22.1886C3.07411 23.5549 3.58691 24.8763 4.40135 26.0634C4.75579 26.5785 5.17055 27.0713 5.6381 27.5267L13.8881 35.4628C14.6498 36.1944 15.8639 36.1795 16.5954 35.4255C17.3344 34.6714 17.3193 33.4694 16.5577 32.7453L11.0602 27.4445C13.0435 27.1385 14.9439 26.2202 16.4521 24.6897L21.7837 19.2621C22.5227 18.508 22.5076 17.306 21.746 16.5818C20.9843 15.8502 19.7702 15.8726 19.0312 16.6192Z" fill="#71DAC1"/>
<path d="M8.31432 24.803C7.83168 24.3401 7.45462 23.8101 7.16806 23.2427C9.31729 24.2207 11.9567 23.8175 13.6987 22.0407L19.0303 16.6131C19.7693 15.859 20.9834 15.8441 21.7376 16.5758C22.4992 17.3074 22.5143 18.5094 21.7753 19.256L16.4437 24.6836C16.406 24.7209 16.3683 24.7582 16.3306 24.7956C14.1135 26.9457 10.554 26.9606 8.31432 24.803Z" fill="#60C3B0"/>
<path d="M21.0677 9.11033L25.1927 13.0821L26.5501 11.701C26.8291 12.3878 27.0327 13.0971 27.1458 13.8212C27.5832 16.6209 26.7612 19.5848 24.6572 21.7947C24.6195 21.832 24.5818 21.8693 24.5441 21.9067L19.2125 27.3268C18.4735 28.0809 18.4886 29.2828 19.2502 30.007C20.0119 30.7387 21.226 30.7237 21.9575 29.9697L27.2891 24.5421C30.9767 20.7943 30.8938 14.7694 27.1006 11.1261L22.9756 7.1543L21.0677 9.11033Z" fill="#F19E8A"/>
<path d="M8.25488 19.4213C7.49322 18.6896 7.47814 17.4876 8.21717 16.7411L13.5488 11.3135C15.0495 9.78298 16.9574 8.86469 18.9407 8.55859L21.7309 11.1567C22.2135 11.6196 22.5454 12.1944 22.8244 12.7618C20.6751 11.7838 18.0357 12.187 16.2937 13.9638L10.9622 19.3914C10.2307 20.138 9.01654 20.1529 8.25488 19.4213Z" fill="#EF876D"/>
<path d="M21.6855 11.2007C22.1681 11.6636 22.5452 12.1936 22.8317 12.761C20.6825 11.783 18.0431 12.1862 16.3011 13.963L10.9695 19.3906C10.2305 20.1447 9.01635 20.1596 8.26224 19.428C7.50058 18.6963 7.4855 17.4943 8.22453 16.7477L13.5561 11.3201C13.5938 11.2828 13.6315 11.2455 13.6692 11.2081C15.8863 9.058 19.4533 9.05053 21.6855 11.2007Z" fill="#EE7460"/>
<path d="M16.1136 0.538641L24.356 8.48222C24.8236 8.93763 25.2384 9.42291 25.5928 9.94551C26.4072 11.1251 26.92 12.454 27.1312 13.8202C27.5686 16.6199 26.7466 19.5838 24.6426 21.7937C26.739 19.539 26.6561 16.0077 24.4239 13.8576C23.9413 13.3947 23.3983 13.0289 22.8252 12.7676C22.5462 12.2002 22.1616 11.6776 21.6789 11.2072L13.444 3.25618C12.6823 2.52454 12.6673 1.32255 13.4063 0.57597C14.1453 -0.178073 15.3594 -0.193004 16.1136 0.538641Z" fill="#EF876D"/>
</svg>
