<svg width="287" height="37" viewBox="0 0 287 37" fill="none" xmlns="http://www.w3.org/2000/svg">
<path d="M55.5352 16.1655C55.3039 15.9523 54.9682 15.9069 54.687 16.0475C52.6915 17.0498 44.7049 21.4037 37.657 30.1432C36.8633 31.1319 35.3667 31.1501 34.5549 30.175C34.5549 30.175 31.2396 25.6488 25.8289 25.549C20.9443 25.4628 15.5836 27.5128 13.5564 28.3745C13.1164 28.5604 12.9622 29.1001 13.2343 29.4947L16.4453 34.1298C16.6585 34.4382 17.0668 34.5379 17.4024 34.3701C22.0737 32.0299 26.3959 30.819 30.2327 30.8462C35.9245 30.887 39.0947 35.6264 39.0947 35.6264C39.8884 36.5561 41.3261 36.5607 42.1243 35.6355C44.8319 32.5016 51.0996 25.9254 59.6124 21.2586C60.0614 21.0137 60.1339 20.3969 59.7575 20.0522L55.5352 16.1655Z" fill="white"/>
<path d="M30.5417 25.394C31.349 26.3736 32.8547 26.3646 33.6484 25.3668C36.2652 22.0696 42.1339 15.4889 49.6035 12.0738C50.0933 11.8516 50.1977 11.2031 49.7986 10.8357L46.2928 7.62929C46.0705 7.42519 45.7485 7.37529 45.4764 7.49769C44.6102 7.88779 42.592 8.86739 40.0567 10.6226C37.3038 12.5274 33.4125 15.7157 29.7027 20.4959C28.9226 21.5027 27.4169 21.5481 26.5914 20.5775C26.5914 20.5775 23.6208 17.2622 21.3985 16.7135C20.2692 16.4368 18.8678 16.1556 17.1217 16.1556C14.0377 16.1556 10.5047 16.8767 6.61352 18.2963C6.14182 18.4686 5.96492 19.0401 6.25522 19.4437L8.93102 23.149C9.13512 23.4302 9.49792 23.5345 9.81992 23.4076C11.5161 22.7273 16.9131 20.7363 21.775 20.7725C26.6005 20.8088 30.5371 25.3895 30.5371 25.3895L30.5417 25.394Z" fill="white"/>
<path d="M2.42706 13.7976C2.63115 14.0788 3.00758 14.1786 3.32958 14.0425C6.56322 12.6865 9.71532 11.9971 12.7131 11.9971C14.7041 11.9971 16.3958 12.2375 17.6883 12.691C20.8539 13.8067 23.0762 16.5369 23.0762 16.5369C23.9107 17.5302 25.4527 17.4848 26.2192 16.4371C28.5458 13.2534 33.5981 7.30309 40.7639 4.15099C41.2583 3.93329 41.3716 3.28479 40.9816 2.91739L38.0926 0.205293C37.8749 0.00119348 37.562 -0.0577062 37.2899 0.0601938C35.4667 0.831194 28.5322 4.14199 22.7225 11.9926C21.9424 13.0447 20.405 13.1309 19.5115 12.174C17.8969 10.4506 15.8288 9.02649 14.5091 8.60469C13.0396 8.13299 11.3842 7.89719 9.55202 7.89719C5.75592 7.89719 2.16401 8.9403 0.508632 9.5027C0.0278916 9.6659 -0.153529 10.2465 0.145801 10.6546L2.43159 13.7976H2.42706Z" fill="white"/>
<path d="M91.1281 30.9918C87.2345 30.9918 84.1319 30.1983 81.8246 28.6114C79.8098 27.2258 78.6891 25.4703 78.4707 23.3447C78.4171 22.8432 78.8086 22.3991 79.3154 22.3991H82.8217C83.2296 22.3991 83.5675 22.691 83.654 23.0898C83.8476 24.0067 84.4739 24.7632 85.5328 25.3634C86.8513 26.1076 88.6725 26.4817 91.0004 26.4817C96.3728 26.4817 99.0638 25.4169 99.0638 23.2872C99.0638 22.4115 98.6928 21.7495 97.9558 21.2973C97.2138 20.8492 96.2578 20.5573 95.0838 20.4257C93.9093 20.2941 92.6114 20.2078 91.1982 20.1585C89.7849 20.1132 88.3634 19.9981 86.9378 19.8213C85.5122 19.6445 84.2102 19.3485 83.0359 18.9333C81.8617 18.518 80.9017 17.8027 80.1641 16.7872C79.4225 15.7717 79.0558 14.4684 79.0558 12.8814C79.0558 10.3982 80.16 8.4617 82.3685 7.0762C84.5769 5.6907 87.4982 5 91.1322 5C94.7668 5 97.8398 5.7853 100.094 7.3599C102.072 8.7413 103.188 10.5092 103.448 12.6676C103.506 13.161 103.102 13.5927 102.603 13.5927H99.2488C98.8408 13.5927 98.4988 13.3008 98.4168 12.8979C98.2318 11.9646 97.6138 11.204 96.5668 10.6079C95.2728 9.876 93.5055 9.506 91.2641 9.506C86.4352 9.506 84.0166 10.501 84.0166 12.4867C84.0166 13.2925 84.3874 13.9134 85.1249 14.3492C85.8666 14.7891 86.8183 15.0728 87.9803 15.2002C89.1463 15.3318 90.44 15.4263 91.8656 15.4839C93.2913 15.5414 94.7168 15.6771 96.1428 15.8909C97.5678 16.1047 98.8618 16.4336 100.028 16.8858C101.19 17.334 102.146 18.0822 102.883 19.1224C103.625 20.1626 103.992 21.4782 103.992 23.0652C103.992 25.6224 102.855 27.5794 100.58 28.9403C98.3058 30.3011 95.1538 30.9836 91.1281 30.9836V30.9918Z" fill="white"/>
<path d="M120.107 26.7312C120.14 26.3447 119.617 26.2008 119.44 26.5462C118.9 27.5823 118.195 28.7704 117.326 29.3953C115.847 30.4602 113.857 30.9947 111.352 30.9947C107.306 30.9947 105.278 29.4324 105.278 26.3077C105.278 25.5965 105.452 24.951 105.802 24.3713C106.148 23.7916 106.58 23.3024 107.091 22.8995C107.602 22.4965 108.286 22.1347 109.147 21.8182C110.009 21.4975 110.808 21.2426 111.545 21.0535C112.287 20.8643 113.206 20.6876 114.302 20.5231C115.402 20.3587 116.304 20.2435 117.013 20.186C117.524 20.1449 118.125 20.0914 118.826 20.0297C119.333 19.9845 119.679 19.5117 119.584 19.0142C119.436 18.2208 119.098 17.6328 118.583 17.2423C117.874 16.7078 116.749 16.4447 115.204 16.4447C113.045 16.4447 110.812 16.9134 108.513 17.8466C107.953 18.0728 107.339 17.6698 107.339 17.0696V14.611C107.339 14.2616 107.553 13.945 107.882 13.8175C110.866 12.6828 113.741 12.1113 116.514 12.1113C121.887 12.1113 124.578 14.8824 124.578 20.4203V29.5845C124.578 30.0532 124.199 30.4314 123.729 30.4314H120.754C120.239 30.4314 119.844 29.975 119.914 29.4652L120.111 26.7394L120.107 26.7312ZM113.408 27.2616C115.085 27.2616 116.531 26.8463 117.751 26.0199C118.628 25.4238 119.197 24.6509 119.452 23.7094C119.609 23.1379 119.151 22.5788 118.558 22.6322C115.81 22.8789 114.038 23.0968 113.243 23.2859C111.348 23.7341 110.404 24.4453 110.404 25.4156C110.404 25.9829 110.676 26.4352 111.22 26.7641C111.764 27.0971 112.493 27.2616 113.408 27.2616Z" fill="white"/>
<path d="M143.06 5.8801C143.06 5.4114 143.439 5.0332 143.909 5.0332H147.143C147.613 5.0332 147.992 5.4114 147.992 5.8801V29.5778C147.992 30.0465 147.613 30.4248 147.143 30.4248H143.892C143.381 30.4248 142.99 29.9807 143.052 29.475L143.159 26.6177C143.175 26.2353 142.668 26.1079 142.487 26.445C141.989 27.3783 141.301 28.5459 140.419 29.2325C138.919 30.4042 137.156 30.988 135.132 30.988C132.454 30.988 130.279 30.1082 128.602 28.3444C126.925 26.5807 126.089 24.266 126.089 21.4045C126.089 18.543 126.9 16.4216 128.52 14.6948C130.139 12.9681 132.158 12.1047 134.576 12.1047C136.665 12.1047 138.486 12.6556 140.044 13.7574C141.029 14.4564 141.778 15.6939 142.285 16.7546C142.446 17.0876 142.953 16.9684 142.957 16.5984L143.064 5.8801H143.06ZM136.5 26.8397C138.066 26.8397 139.409 26.3545 140.53 25.3843C141.651 24.414 142.211 23.1107 142.211 21.4785C142.211 19.8463 141.651 18.6253 140.53 17.6796C139.409 16.734 138.066 16.2612 136.5 16.2612C134.935 16.2612 133.526 16.7299 132.471 17.6632C131.416 18.6006 130.889 19.871 130.889 21.4785C130.889 23.086 131.416 24.4428 132.471 25.4007C133.526 26.3587 134.869 26.8397 136.5 26.8397Z" fill="white"/>
<path d="M164.223 26.7312C164.256 26.3447 163.732 26.2008 163.555 26.5462C163.016 27.5823 162.311 28.7704 161.442 29.3953C159.962 30.4602 157.972 30.9947 155.467 30.9947C151.421 30.9947 149.394 29.4324 149.394 26.3077C149.394 25.5965 149.567 24.951 149.917 24.3713C150.263 23.7916 150.696 23.3024 151.207 22.8995C151.718 22.4965 152.402 22.1347 153.263 21.8182C154.124 21.4975 154.923 21.2426 155.661 21.0535C156.403 20.8643 157.321 20.6876 158.417 20.5231C159.517 20.3587 160.42 20.2435 161.128 20.186C161.639 20.1449 162.241 20.0914 162.941 20.0297C163.448 19.9845 163.794 19.5117 163.699 19.0142C163.551 18.2208 163.213 17.6328 162.698 17.2423C161.99 16.7078 160.865 16.4447 159.32 16.4447C157.161 16.4447 154.927 16.9134 152.628 17.8466C152.068 18.0728 151.454 17.6698 151.454 17.0696V14.611C151.454 14.2616 151.668 13.945 151.998 13.8175C154.981 12.6828 157.857 12.1113 160.63 12.1113C166.003 12.1113 168.693 14.8824 168.693 20.4203V29.5845C168.693 30.0532 168.314 30.4314 167.844 30.4314H164.87C164.355 30.4314 163.959 29.975 164.029 29.4652L164.227 26.7394L164.223 26.7312ZM157.523 27.2616C159.2 27.2616 160.646 26.8463 161.866 26.0199C162.744 25.4238 163.312 24.6509 163.568 23.7094C163.724 23.1379 163.267 22.5788 162.674 22.6322C159.925 22.8789 158.154 23.0968 157.358 23.2859C155.463 23.7341 154.52 24.4453 154.52 25.4156C154.52 25.9829 154.792 26.4352 155.335 26.7641C155.879 27.0971 156.609 27.2616 157.523 27.2616Z" fill="white"/>
<path d="M182.816 30.9918C178.922 30.9918 175.82 30.1983 173.512 28.6114C171.497 27.2258 170.377 25.4703 170.158 23.3447C170.105 22.8432 170.496 22.3991 171.003 22.3991H174.509C174.917 22.3991 175.255 22.691 175.342 23.0898C175.535 24.0067 176.162 24.7631 177.221 25.3634C178.539 26.1076 180.36 26.4817 182.688 26.4817C188.061 26.4817 190.751 25.4169 190.751 23.2872C190.751 22.4115 190.381 21.7495 189.643 21.2973C188.901 20.8492 187.946 20.5573 186.771 20.4257C185.597 20.2941 184.299 20.2078 182.886 20.1585C181.473 20.1132 180.051 19.9981 178.626 19.8213C177.2 19.6445 175.898 19.3485 174.724 18.9333C173.549 18.518 172.589 17.8027 171.852 16.7872C171.11 15.7717 170.743 14.4684 170.743 12.8814C170.743 10.3982 171.848 8.4617 174.056 7.0762C176.265 5.6907 179.186 5 182.82 5C186.454 5 189.528 5.7853 191.781 7.3599C193.759 8.7413 194.876 10.5092 195.135 12.6676C195.193 13.161 194.789 13.5927 194.291 13.5927H190.937C190.529 13.5927 190.187 13.3008 190.105 12.8979C189.919 11.9646 189.301 11.204 188.255 10.6079C186.961 9.876 185.193 9.506 182.952 9.506C178.123 9.506 175.704 10.501 175.704 12.4867C175.704 13.2925 176.075 13.9134 176.813 14.3492C177.554 14.7891 178.506 15.0728 179.668 15.2002C180.834 15.3318 182.128 15.4263 183.553 15.4839C184.979 15.5414 186.405 15.6771 187.83 15.8909C189.256 16.1047 190.55 16.4336 191.716 16.8858C192.877 17.334 193.833 18.0822 194.571 19.1224C195.313 20.1626 195.679 21.4782 195.679 23.0652C195.679 25.6224 194.542 27.5794 192.268 28.9403C189.993 30.3011 186.841 30.9836 182.816 30.9836V30.9918Z" fill="white"/>
<path d="M207.614 30.991C204.524 30.991 201.99 30.1194 200.008 28.3803C198.026 26.6412 197.038 24.3635 197.038 21.5472C197.038 18.731 198.006 16.4245 199.942 14.6937C201.879 12.9669 204.446 12.1035 207.647 12.1035C210.045 12.1035 212.398 12.6298 214.701 13.6823C214.998 13.8179 215.187 14.1222 215.187 14.4511V17.0166C215.187 17.6456 214.524 18.0526 213.959 17.773C211.953 16.7617 209.847 16.2601 207.643 16.2601C205.859 16.2601 204.446 16.7452 203.399 17.7155C202.353 18.6858 201.834 19.9644 201.834 21.5513C201.834 23.1383 202.39 24.4169 203.498 25.3872C204.606 26.3575 206.098 26.8426 207.969 26.8426C210.165 26.8426 212.159 26.3863 213.943 25.4777C214.512 25.1899 215.183 25.5887 215.183 26.2259V28.6557C215.183 28.9805 214.998 29.2806 214.701 29.4204C213.506 29.9837 212.443 30.3784 211.508 30.6086C210.453 30.8676 209.151 30.9992 207.606 30.9992L207.614 30.991Z" fill="white"/>
<path d="M222.073 17.4782C222.065 17.877 222.617 17.9798 222.761 17.6056C224.014 14.3577 226.437 12.376 230.029 12.376C232.403 12.4254 234.121 13.2394 235.188 14.8264C236.255 16.4134 236.787 19.1351 236.787 22.9915V29.8492C236.787 30.3179 236.408 30.6961 235.938 30.6961H232.736C232.267 30.6961 231.888 30.3179 231.888 29.8492V23.5958C231.888 20.9934 231.546 19.1392 230.858 18.0414C230.174 16.9396 229.057 16.3887 227.512 16.3887C225.814 16.3887 224.455 17.2356 223.433 18.9254C222.411 20.6192 221.9 22.8599 221.9 25.6515V29.8451C221.9 30.3137 221.521 30.692 221.051 30.692H217.85C217.38 30.692 217.001 30.3137 217.001 29.8451V5.8801C217.001 5.4114 217.38 5.0332 217.85 5.0332H221.468C221.95 5.0332 222.337 5.4361 222.316 5.9171L222.069 17.4782H222.073Z" fill="white"/>
<path d="M255.916 28.4008C254.045 30.1276 251.565 30.991 248.475 30.991C245.384 30.991 242.896 30.1276 241.017 28.4008C239.134 26.6741 238.195 24.3882 238.195 21.5472C238.195 18.7063 239.134 16.4245 241.017 14.6937C242.9 12.9669 245.384 12.1035 248.475 12.1035C251.565 12.1035 254.045 12.9669 255.916 14.6937C257.786 16.4204 258.722 18.7063 258.722 21.5472C258.722 24.3882 257.786 26.6699 255.916 28.4008ZM244.358 25.3831C245.405 26.3534 246.773 26.8385 248.47 26.8385C250.168 26.8385 251.54 26.3534 252.582 25.3831C253.629 24.4128 254.148 23.1342 254.148 21.5472C254.148 19.9603 253.625 18.6857 252.582 17.7114C251.536 16.7411 250.168 16.256 248.47 16.256C246.773 16.256 245.401 16.7411 244.358 17.7114C243.316 18.6816 242.793 19.9603 242.793 21.5472C242.793 23.1342 243.316 24.4128 244.358 25.3831Z" fill="white"/>
<path d="M277.702 28.4008C275.832 30.1276 273.351 30.991 270.261 30.991C267.171 30.991 264.682 30.1276 262.804 28.4008C260.921 26.6741 259.981 24.3882 259.981 21.5472C259.981 18.7063 260.921 16.4245 262.804 14.6937C264.686 12.9669 267.171 12.1035 270.261 12.1035C273.351 12.1035 275.832 12.9669 277.702 14.6937C279.573 16.4204 280.508 18.7063 280.508 21.5472C280.508 24.3882 279.573 26.6699 277.702 28.4008ZM266.145 25.3831C267.192 26.3534 268.56 26.8385 270.257 26.8385C271.955 26.8385 273.327 26.3534 274.369 25.3831C275.416 24.4128 275.935 23.1342 275.935 21.5472C275.935 19.9603 275.411 18.6857 274.369 17.7114C273.323 16.7411 271.955 16.256 270.257 16.256C268.56 16.256 267.187 16.7411 266.145 17.7114C265.103 18.6816 264.579 19.9603 264.579 21.5472C264.579 23.1342 265.103 24.4128 266.145 25.3831Z" fill="white"/>
<path d="M286.056 30.8729H282.854C282.385 30.8729 282.006 30.4947 282.006 30.026V5.8801C282.006 5.4114 282.385 5.0332 282.854 5.0332H286.056C286.525 5.0332 286.905 5.4114 286.905 5.8801V30.0301C286.905 30.4988 286.525 30.877 286.056 30.877V30.8729Z" fill="white"/>
</svg>
