<svg width="296" height="48" viewBox="0 0 296 48" fill="none" xmlns="http://www.w3.org/2000/svg">
<path d="M23.5066 1.55942L8.27972 10.3397L8.2257 28.066L5.503 26.5102V8.89196L20.7803 0L23.5066 1.55942ZM10.9628 12.0324V15.2413L26.3013 6.36375L41.5966 15.2413V11.9496L26.2797 3.15486L10.9628 12.0324ZM38.8451 19.9916L38.8019 37.581L41.593 36.0396V18.3673L26.2761 9.4898L23.503 11.1969L38.8451 19.9916ZM2.71188 10.4478L0.00360496 12.072V29.575L15.2989 38.4094L18.0504 36.9076L2.75511 28.0588L2.71188 10.4478ZM33.3854 37.581L18.0468 46.4154L20.7767 48L36.0072 39.2485V21.5762L33.2989 19.952L33.3854 37.581ZM0 32.9136V35.9964L15.2953 44.8739L30.5906 36.0396V32.9136L15.2953 41.7083L0 32.9136ZM11.9748 18.4106V23.5354L13.8079 24.4322V19.952L16.3253 18.6375L22.8764 22.5738L25.1561 21.4322L16.419 16.1849L11.9748 18.4106ZM27.4178 20.0924L27.3277 22.491L20.6255 26.3373V28.8836L29.6218 23.7551V18.7851L25.1128 16.5306L22.8872 17.8271L27.4178 20.0924ZM16.2569 21.1224V31.3145L20.4562 33.976L24.6735 31.2101V28.6351L20.4382 31.4118L18.4106 30.1261V22.4838L16.2569 21.1224Z" fill="#FC654A"/>
<path d="M68.7874 38.48C67.5714 38.64 66.5474 38.72 65.7154 38.72C63.0594 38.72 60.9634 38.112 59.4274 36.896C57.9234 35.68 57.1714 33.808 57.1714 31.28L57.2194 17.696H53.0914V13.664H57.2194V6.32H61.2514V13.664H66.1954V17.696H59.5234V18.416C60.1954 18.416 60.6434 18.528 60.8674 18.752C61.1234 18.944 61.2514 19.296 61.2514 19.808V30.656C61.2514 33.408 62.7714 34.784 65.8114 34.784C66.7714 34.784 67.7634 34.672 68.7874 34.448V38.48ZM71.6539 13.664H75.7339V15.776C76.2459 15.04 76.9979 14.432 77.9899 13.952C79.0139 13.472 80.1819 13.232 81.4939 13.232C82.5819 13.232 83.6059 13.376 84.5659 13.664V17.408H74.0059V18.128C74.6779 18.128 75.1259 18.24 75.3499 18.464C75.6059 18.656 75.7339 19.008 75.7339 19.52V38H71.7019L71.6539 13.664ZM96.1594 38.672C94.0154 38.672 92.0634 38.16 90.3034 37.136C88.5434 36.08 87.1514 34.592 86.1274 32.672C85.1034 30.72 84.5914 28.48 84.5914 25.952C84.5914 23.424 85.1194 21.2 86.1754 19.28C87.2634 17.328 88.7034 15.824 90.4954 14.768C92.3194 13.712 94.3034 13.184 96.4474 13.184C99.6154 13.184 102.223 14.496 104.271 17.12V13.664H108.303V38H104.271V33.776H103.551C103.519 34.896 103.087 35.824 102.255 36.56C101.423 37.296 100.447 37.824 99.3274 38.144C98.2074 38.496 97.1514 38.672 96.1594 38.672ZM88.6234 25.952C88.6234 28.512 89.3434 30.608 90.7834 32.24C92.2234 33.84 94.1114 34.64 96.4474 34.64C98.7834 34.64 100.671 33.84 102.111 32.24C103.551 30.608 104.271 28.512 104.271 25.952C104.271 23.392 103.551 21.296 102.111 19.664C100.671 18.032 98.7834 17.216 96.4474 17.216C94.1114 17.216 92.2234 18.032 90.7834 19.664C89.3434 21.296 88.6234 23.392 88.6234 25.952ZM111.169 13.664H115.249L122.401 32.864L129.601 13.664H133.681L124.225 38H120.577L111.169 13.664ZM145.057 38.48C142.913 38.48 140.929 37.984 139.105 36.992C137.313 35.968 135.873 34.512 134.785 32.624C133.729 30.704 133.201 28.48 133.201 25.952C133.201 23.424 133.729 21.2 134.785 19.28C135.873 17.328 137.313 15.824 139.105 14.768C140.929 13.712 142.913 13.184 145.057 13.184C147.201 13.184 149.169 13.728 150.961 14.816C152.785 15.872 154.241 17.408 155.329 19.424C156.417 21.44 156.961 23.792 156.961 26.48H135.361V27.2C136.033 27.2 136.513 27.312 136.801 27.536C137.121 27.728 137.377 28.08 137.569 28.592C138.881 32.464 141.377 34.4 145.057 34.4C146.753 34.4 148.225 33.952 149.473 33.056C150.753 32.16 151.665 30.944 152.209 29.408H156.481C155.777 32.192 154.369 34.4 152.257 36.032C150.177 37.664 147.777 38.48 145.057 38.48ZM152.401 22.832C151.825 20.976 150.897 19.584 149.617 18.656C148.369 17.728 146.849 17.264 145.057 17.264C143.265 17.264 141.729 17.728 140.449 18.656C139.169 19.584 138.257 20.976 137.713 22.832H152.401ZM159.826 13.664H163.906V15.776C164.418 15.04 165.17 14.432 166.162 13.952C167.186 13.472 168.354 13.232 169.666 13.232C170.754 13.232 171.778 13.376 172.738 13.664V17.408H162.178V18.128C162.85 18.128 163.298 18.24 163.522 18.464C163.778 18.656 163.906 19.008 163.906 19.52V38H159.874L159.826 13.664ZM182.581 38.48C180.725 38.48 179.029 38.144 177.493 37.472C175.989 36.768 174.725 35.904 173.701 34.88L175.477 31.376C177.589 33.168 179.877 34.192 182.341 34.448L183.061 34.496C184.181 34.496 185.045 34.24 185.653 33.728C186.261 33.184 186.565 32.448 186.565 31.52C186.565 30.816 186.261 30.192 185.653 29.648C185.077 29.104 184.005 28.576 182.437 28.064C179.973 27.264 178.005 26.256 176.533 25.04C175.061 23.824 174.325 22.272 174.325 20.384C174.325 19.04 174.661 17.84 175.333 16.784C176.037 15.696 176.965 14.848 178.117 14.24C179.269 13.632 180.517 13.328 181.861 13.328C183.333 13.328 184.757 13.536 186.133 13.952C187.509 14.368 188.693 15.024 189.685 15.92L187.909 19.472C187.269 18.672 186.453 18.064 185.461 17.648C184.469 17.2 183.445 16.976 182.389 16.976C181.237 16.976 180.261 17.264 179.461 17.84C178.693 18.416 178.309 19.264 178.309 20.384C178.309 21.312 178.693 22.064 179.461 22.64C180.229 23.184 181.477 23.792 183.205 24.464C188.133 26.352 190.597 28.784 190.597 31.76C190.597 33.872 189.845 35.52 188.341 36.704C186.869 37.888 184.949 38.48 182.581 38.48ZM204.112 38.672C201.968 38.672 200.016 38.16 198.256 37.136C196.496 36.08 195.104 34.592 194.08 32.672C193.056 30.72 192.544 28.48 192.544 25.952C192.544 23.424 193.072 21.2 194.128 19.28C195.216 17.328 196.656 15.824 198.448 14.768C200.272 13.712 202.256 13.184 204.4 13.184C207.568 13.184 210.176 14.496 212.224 17.12V13.664H216.256V38H212.224V33.776H211.504C211.472 34.896 211.04 35.824 210.208 36.56C209.376 37.296 208.4 37.824 207.28 38.144C206.16 38.496 205.104 38.672 204.112 38.672ZM196.576 25.952C196.576 28.512 197.296 30.608 198.736 32.24C200.176 33.84 202.064 34.64 204.4 34.64C206.736 34.64 208.624 33.84 210.064 32.24C211.504 30.608 212.224 28.512 212.224 25.952C212.224 23.392 211.504 21.296 210.064 19.664C208.624 18.032 206.736 17.216 204.4 17.216C202.064 17.216 200.176 18.032 198.736 19.664C197.296 21.296 196.576 23.392 196.576 25.952ZM230.691 38.672C228.547 38.672 226.595 38.16 224.835 37.136C223.075 36.08 221.683 34.592 220.659 32.672C219.635 30.72 219.123 28.48 219.123 25.952C219.123 23.424 219.651 21.2 220.707 19.28C221.795 17.328 223.235 15.824 225.027 14.768C226.851 13.712 228.835 13.184 230.979 13.184C234.147 13.184 236.755 14.496 238.803 17.12V13.664H242.835V38H238.803V33.776H238.083C238.051 34.896 237.619 35.824 236.787 36.56C235.955 37.296 234.979 37.824 233.859 38.144C232.739 38.496 231.683 38.672 230.691 38.672ZM223.155 25.952C223.155 28.512 223.875 30.608 225.315 32.24C226.755 33.84 228.643 34.64 230.979 34.64C233.315 34.64 235.203 33.84 236.643 32.24C238.083 30.608 238.803 28.512 238.803 25.952C238.803 23.392 238.083 21.296 236.643 19.664C235.203 18.032 233.315 17.216 230.979 17.216C228.643 17.216 226.755 18.032 225.315 19.664C223.875 21.296 223.155 23.392 223.155 25.952ZM245.701 6.32H249.781V38H245.701V6.32ZM255.038 38C254.366 38 253.79 37.76 253.31 37.28C252.862 36.8 252.638 36.24 252.638 35.6C252.638 34.928 252.862 34.352 253.31 33.872C253.79 33.392 254.366 33.152 255.038 33.152C255.71 33.152 256.286 33.408 256.766 33.92C257.246 34.4 257.486 34.96 257.486 35.6C257.486 36.24 257.246 36.8 256.766 37.28C256.286 37.76 255.71 38 255.038 38Z" fill="white"/>
<path d="M271.941 38.672C269.797 38.672 267.845 38.16 266.085 37.136C264.325 36.08 262.933 34.592 261.909 32.672C260.885 30.72 260.373 28.48 260.373 25.952C260.373 23.424 260.901 21.2 261.957 19.28C263.045 17.328 264.485 15.824 266.277 14.768C268.101 13.712 270.085 13.184 272.229 13.184C275.397 13.184 278.005 14.496 280.053 17.12V13.664H284.085V38H280.053V33.776H279.333C279.301 34.896 278.869 35.824 278.037 36.56C277.205 37.296 276.229 37.824 275.109 38.144C273.989 38.496 272.933 38.672 271.941 38.672ZM264.405 25.952C264.405 28.512 265.125 30.608 266.565 32.24C268.005 33.84 269.893 34.64 272.229 34.64C274.565 34.64 276.453 33.84 277.893 32.24C279.333 30.608 280.053 28.512 280.053 25.952C280.053 23.392 279.333 21.296 277.893 19.664C276.453 18.032 274.565 17.216 272.229 17.216C269.893 17.216 268.005 18.032 266.565 19.664C265.125 21.296 264.405 23.392 264.405 25.952ZM286.951 13.664H294.103V17.696H289.303V18.416C289.975 18.416 290.423 18.528 290.647 18.752C290.903 18.944 291.031 19.296 291.031 19.808V38H286.951V13.664ZM286.951 9.056C286.951 8.16 287.271 7.408 287.911 6.8C288.551 6.16 289.319 5.84 290.215 5.84C291.111 5.84 291.863 6.16 292.471 6.8C293.111 7.408 293.431 8.16 293.431 9.056C293.431 9.952 293.111 10.72 292.471 11.36C291.863 12 291.111 12.32 290.215 12.32C289.319 12.32 288.551 12 287.911 11.36C287.271 10.72 286.951 9.952 286.951 9.056Z" fill="#FC654A"/>
</svg>
