<svg width="166" height="79" viewBox="0 0 166 79" fill="none" xmlns="http://www.w3.org/2000/svg">
<path d="M146.6 29.5998L154.1 22.0998L137.8 5.79978C137.8 5.79978 134.7 2.39978 130.1 1.69978C127.2 1.29978 118.4 1.39978 118.4 1.39978L146.6 29.5998Z" fill="url(#paint0_linear_2037_28336)"/>
<path d="M137.9 23.5L145.4 31L137.6 38.8C137.6 38.8 133.8 43.2 128.5 43.2C126.6 43.2 118.2 43.2 118.2 43.2L137.9 23.5Z" fill="url(#paint1_linear_2037_28336)"/>
<path d="M129.4 14.9004L136.9 22.4004L120.6 38.7004C120.6 38.7004 116.7 43.2004 111.6 43.2004C108.6 43.2004 101.3 43.1004 101.3 43.1004L129.4 14.9004Z" fill="url(#paint2_linear_2037_28336)"/>
<path d="M120.6 21.2L128.1 13.7L120.3 5.9C120.3 5.9 116.4 1.5 110.8 1.5C107.7 1.5 101 1.5 101 1.5L120.6 21.2Z" fill="url(#paint3_linear_2037_28336)"/>
<path d="M60.1 42.8004C60.7 41.8004 61.5 41.0004 62.5 40.4004C65.4 42.1004 69 43.0004 72.8 43.0004C83.9 43.0004 92.3 35.0004 92.3 24.3004C92.3 19.4004 90.6 15.2004 87.7 11.9004V11.6004C87.7 8.20039 90.1 6.00039 93.6 6.00039H95.7V1.40039H93.3C88.3 1.40039 84.8 4.30039 84.2 8.80039C81 6.80039 77.1 5.60039 72.8 5.60039C61.6 5.60039 53.2 13.7004 53.2 24.4004C53.2 30.0004 55.5 34.8004 59.3 38.2004C57.9 39.0004 56.7 40.2004 55.8 41.6004M55.8 41.6004C54.8 43.3004 54.2 45.3004 54.2 47.4004C54.2 50.3004 55.4 52.8004 57.5 54.4004C54.1 56.8004 52 60.6004 52 65.0004C52 72.0004 57.6 77.8004 64.5 77.8004H81.7C88.6 77.8004 94.2 72.0004 94.2 65.0004C94.2 58.0004 88.6 52.2004 81.7 52.2004L66.4 52.1004C62.1 52.1004 59.2 49.8004 59.2 46.2004C59.2 45.0004 59.5 43.8004 60.1 42.8004M58.4 24.4004C58.4 16.4004 64.5 10.3004 72.8 10.3004C81 10.3004 87.1 16.4004 87.1 24.4004C87.1 32.3004 81 38.4004 72.8 38.4004C64.6 38.4004 58.4 32.4004 58.4 24.4004ZM89.3 65.1004C89.3 69.4004 85.8 73.0004 81.4 73.0004H64.7C60.4 73.0004 56.8 69.5004 56.8 65.1004V64.8004C56.8 60.5004 60.3 56.9004 64.7 56.9004H81.4C85.7 56.9004 89.3 60.4004 89.3 64.8004V65.1004Z" fill="#6782AD" stroke="#6782AD" stroke-width="0.7433" stroke-miterlimit="10"/>
<path d="M28.7001 8V5H1.4001V10L21.2001 9.8L1.1001 37.4V40.4H29.2001V35.6H8.4001L28.7001 8Z" fill="#6782AD" stroke="#6782AD" stroke-width="0.7433" stroke-miterlimit="10"/>
<path d="M52.1999 4.5C46.6999 4.5 42.2999 7 39.6999 11.2V5H34.8999V40.3H38.8999H39.6999V20.1C41.3999 14.2 45.9999 9.7 52.1999 9.7H53.1999V4.5H52.1999Z" fill="#6782AD" stroke="#6782AD" stroke-width="0.7433" stroke-miterlimit="10"/>
<path d="M108 52.5V59.9H106.8V55.3L104.7 58.1H104.3L102.2 55.3V59.9H101V52.5H101.4L104.5 56.6L107.6 52.5H108Z" fill="#6782AD"/>
<path d="M115.7 52.5C117.8 52.5 119.6 54.2 119.5 56.3C119.5 58.4 117.7 60.1 115.7 60.1C113.6 60.1 111.8 58.4 111.9 56.3C111.8 54.2 113.6 52.5 115.7 52.5ZM115.7 53.6C114.2 53.6 113.1 54.8 113.1 56.3C113.1 57.9 114.2 59 115.7 59C117.2 59 118.3 57.8 118.3 56.3C118.4 54.7 117.2 53.6 115.7 53.6Z" fill="#6782AD"/>
<path d="M128.7 52.5996L125.5 59.9996H125.1L121.9 52.5996H123.2L125.3 57.6996L127.4 52.5996H128.7Z" fill="#6782AD"/>
<path d="M132.4 52.5996H137.2V53.6996H133.6V55.5996H136.3V56.5996H133.6V58.8996H137.4V59.9996H132.5V52.5996H132.4Z" fill="#6782AD"/>
<path d="M101.1 65.2012H105.8V66.3012H102.3V68.5012H105.2V69.6012H102.3V72.6012H101.1V65.2012Z" fill="#23324D"/>
<path d="M112.1 65.0996C114.2 65.0996 116 66.7996 115.9 68.8996C115.9 70.9996 114.1 72.6996 112.1 72.6996C110 72.6996 108.2 70.9996 108.3 68.8996C108.2 66.7996 110 65.0996 112.1 65.0996ZM112.1 66.1996C110.6 66.1996 109.5 67.3996 109.5 68.8996C109.5 70.4996 110.6 71.5996 112.1 71.5996C113.6 71.5996 114.7 70.3996 114.7 68.8996C114.7 67.2996 113.6 66.1996 112.1 66.1996Z" fill="#23324D"/>
<path d="M123.7 72.5012L121.6 69.7012H120.3V72.5012H119.1V65.2012H121.8C123.3 65.2012 124.3 66.1012 124.3 67.4012C124.3 68.4012 123.8 69.1012 122.9 69.5012L125.1 72.5012H123.7ZM120.3 68.7012H121.8C122.6 68.7012 123.1 68.2012 123.1 67.5012C123.1 66.8012 122.6 66.3012 121.8 66.3012H120.3V68.7012Z" fill="#23324D"/>
<path d="M137.8 65.2L134.9 72.6H134.5L132.3 67.4L130.1 72.6H129.7L126.8 65.2H128.1L129.9 70.1L132 65H132.4L134.5 70.1L136.3 65.2H137.8Z" fill="#23324D"/>
<path d="M144.4 71.2996H141.1L140.6 72.4996H139.3L142.5 65.0996H142.9L146.1 72.4996H145L144.4 71.2996ZM142.8 67.2996L141.6 70.2996H144.1L142.8 67.2996Z" fill="#23324D"/>
<path d="M153.8 72.5012L151.7 69.7012H150.4V72.5012H149.2V65.2012H151.9C153.4 65.2012 154.4 66.1012 154.4 67.4012C154.4 68.4012 153.9 69.1012 153 69.5012L155.2 72.5012H153.8ZM150.3 68.7012H151.8C152.6 68.7012 153.1 68.2012 153.1 67.5012C153.1 66.8012 152.6 66.3012 151.8 66.3012H150.3V68.7012Z" fill="#23324D"/>
<path d="M157.9 65.2012H160.2C162.6 65.2012 164.2 66.7012 164.2 68.8012C164.2 70.9012 162.6 72.5012 160.2 72.5012H157.9V65.2012ZM160.2 71.5012C161.9 71.5012 163 70.4012 163 68.9012C163 67.3012 161.9 66.3012 160.2 66.3012H159.1V71.5012H160.2Z" fill="#23324D"/>
<path d="M54.7002 56.5004C55.4002 57.1004 58.1002 58.8004 59.7002 59.3004C60.5002 58.6004 61.9002 57.6004 64.1002 57.4004C60.9002 56.9004 58.1002 55.4004 56.8002 54.4004C56.8002 54.4004 56.4002 54.6004 55.6002 55.4004C55.1002 55.9004 54.7002 56.5004 54.7002 56.5004Z" fill="#526C93"/>
<path d="M62.5004 40.9012C59.6004 39.1012 58.7004 38.2012 58.7004 38.2012C57.7004 38.8012 56.8004 39.7012 56.4004 40.2012C57.9004 41.6012 59.4004 42.4012 60.6004 42.7012C61.1004 42.0012 61.4004 41.6012 62.5004 40.9012Z" fill="#526C93"/>
<defs>
<linearGradient id="paint0_linear_2037_28336" x1="118.417" y1="15.5401" x2="154.121" y2="15.5401" gradientUnits="userSpaceOnUse">
<stop offset="0.0240072" stop-color="#435674"/>
<stop offset="0.9493" stop-color="#6782AD"/>
</linearGradient>
<linearGradient id="paint1_linear_2037_28336" x1="112.518" y1="51.179" x2="136.955" y2="31.9013" gradientUnits="userSpaceOnUse">
<stop offset="0.4842" stop-color="#6782AD"/>
<stop offset="0.8825" stop-color="#23324D"/>
</linearGradient>
<linearGradient id="paint2_linear_2037_28336" x1="108.736" y1="43.3885" x2="130.729" y2="20.581" gradientUnits="userSpaceOnUse">
<stop offset="0.0207598" stop-color="#67AD69"/>
<stop offset="1" stop-color="#8DC63F"/>
</linearGradient>
<linearGradient id="paint3_linear_2037_28336" x1="132.13" y1="24.0061" x2="104.435" y2="-0.973609" gradientUnits="userSpaceOnUse">
<stop offset="0.0416177" stop-color="#234D25"/>
<stop offset="1" stop-color="#67AD69"/>
</linearGradient>
</defs>
</svg>
