<svg width="89" height="89" viewBox="0 0 89 89" fill="none" xmlns="http://www.w3.org/2000/svg">
<path d="M46.8647 51.2275H42.418V52.0793H46.8647V51.2275Z" fill="#4f3a32"/>
<path d="M46.8647 37.0176H42.418V37.8694H46.8647V37.0176Z" fill="#4f3a32"/>
<path d="M46.4151 46.2046H51.2647V51.2279H38.0156V47.6237L42.8652 43.5063V42.7044H38.0156V37.8701H51.2644V41.3298L46.4148 45.4025V46.2044H46.4151V46.2046Z" fill="#4f3a32"/>
<path d="M22.3193 88.5381H0.75V66.9688H22.3193V88.5381ZM31.3496 3.75977H33.8594V0.75H43.3887V3.75977H45.8994V0.75H58.4385V4.25977H55.4287V6.76953H60.9482V3.75977H64.459V13.29H60.9482V10.2803H55.4287V12.79H58.4385V22.3193H54.9287V16.2998H51.9189V13.29H45.8994V9.78027H51.9189V4.25977H49.4092V7.26953H42.8887V4.25977H34.3594V7.26953H30.8496V4.25977H28.3398V12.79H30.8496V9.78027H34.3594V21.8193H36.8691V18.8096H40.3789V21.8193H42.8887V15.7998H46.3994V21.8193H48.9092V18.8096H52.4189V24.8291H67.4688V27.8398H69.9785V24.8291H85.5283V27.8398H88.5381V34.3594H85.0283V31.3496H82.5186V34.3594H79.5078V37.3691H70.4785V48.9092H73.4883V54.9287H82.5186V58.4385H73.4883V60.9482H79.5078V66.9688H82.5186V70.4785H79.5078V73.4883H76.498V75.998H85.5283V79.0078H88.5381V82.5186H82.0186V79.5078H76.498V82.0186H79.5078V88.5381H69.9785V85.5283H67.4688V88.5381H60.9482V82.0186H63.959V79.5078H58.4385V85.5283H55.4287V88.5381H48.9092V85.0283H54.9287V82.5186H51.9189V79.5078H48.9092V69.9785H51.9189V64.459H49.4092V67.4688H42.8887V64.459H37.3691V72.9883H39.8789V69.9785H46.3994V73.4883H43.3887V76.498H40.3789V79.0078H46.3994V88.5381H42.8887V85.5283H39.8789V79.5078H37.3691V82.5186H33.8594V79.5078H31.3496V85.5283H27.8398V82.5186H24.8291V79.0078H30.8496V76.498H27.8398V73.4883H24.8291V61.4482H22.3193V64.459H15.7998V61.4482H12.79V58.4385H10.2803V64.459H0.75V60.9482H6.76953V58.4385H0.75V54.9287H9.78027V52.4189H6.76953V49.4092H4.25977V52.4189H0.75V48.9092H3.75977V42.8887H9.78027V40.3789H3.75977V37.3691H0.75V30.8496H3.75977V27.8398H6.76953V24.8291H10.2803V30.8496H12.79V27.8398H15.7998V24.8291H28.3398V28.3398H19.3096V30.8496H28.3398V36.8691H31.3496V49.4092H27.8398V46.3994H25.3291V49.4092H22.3193V52.4189H19.3096V54.9287H22.3193V57.9385H25.3291V60.9482H27.8398V51.9189H31.3496V57.9385H37.3691V60.9482H39.8789V57.9385H43.3887V60.9482H46.3994V63.959H48.9092V60.9482H52.4189V63.959H54.9287V60.9482H58.4385V63.959H60.9482V58.4385H57.9385V51.9189H60.9482V49.4092H57.9385V39.8789H60.9482V37.3691H57.9385V28.3398H55.4287V31.3496H51.9189V28.3398H46.3994V31.3496H39.8789V27.8398H42.8887V25.3291H39.8789V22.3193H37.3691V28.3398H34.3594V31.3496H30.8496V27.8398H33.8594V25.3291H30.8496V16.2998H28.3398V22.3193H24.8291V3.75977H27.8398V0.75H31.3496V3.75977ZM88.5381 88.5381H85.0283V85.0283H88.5381V88.5381ZM4.25977 85.0283H18.8096V70.4785H4.25977V85.0283ZM64.459 79.0078H67.4688V82.0186H70.4785V85.0283H75.998V82.5186H72.9883V79.5078H69.9785V76.498H64.459V79.0078ZM16.2998 82.5186H6.76953V72.9883H16.2998V82.5186ZM34.3594 79.0078H36.8691V76.498H34.3594V79.0078ZM52.4189 79.0078H54.9287V75.998H57.9385V70.4785H52.4189V79.0078ZM85.5283 63.959H88.5381V73.4883H85.0283V64.459H82.0186V60.9482H85.5283V63.959ZM31.3496 72.9883H33.8594V70.4785H31.3496V72.9883ZM64.459 72.9883H72.9883V64.459H64.459V72.9883ZM70.4785 70.4785H66.9688V66.9688H70.4785V70.4785ZM28.3398 69.9785H30.8496V67.4688H28.3398V69.9785ZM58.4385 69.9785H60.9482V67.4688H58.4385V69.9785ZM31.3496 66.9688H33.8594V64.459H31.3496V66.9688ZM28.3398 63.959H30.8496V61.4482H28.3398V63.959ZM34.3594 63.959H36.8691V61.4482H34.3594V63.959ZM16.2998 60.9482H21.8193V58.4385H16.2998V60.9482ZM85.5283 39.8789H88.5381V46.3994H85.5283V48.9092H88.5381V58.4385H85.0283V52.4189H82.0186V46.3994H79.5078V49.4092H75.998V39.8789H79.5078V42.8887H82.0186V36.8691H85.5283V39.8789ZM13.29 57.9385H15.7998V55.4287H13.29V57.9385ZM64.459 57.9385H69.9785V55.4287H66.9688V49.4092H64.459V57.9385ZM10.2803 51.9189H12.79V49.4092H10.2803V51.9189ZM16.2998 40.3789H13.29V43.3887H10.2803V45.8994H13.29V48.9092H16.2998V51.9189H18.8096V48.9092H21.8193V46.3994H15.7998V42.8887H21.8193V40.3789H18.8096V37.3691H16.2998V40.3789ZM61.4482 48.9092H63.959V46.3994H61.4482V48.9092ZM22.3193 45.8994H24.8291V43.3887H22.3193V45.8994ZM64.459 45.8994H66.9688V40.3789H64.459V45.8994ZM82.5186 45.8994H85.0283V43.3887H82.5186V45.8994ZM10.2803 39.8789H12.79V34.3594H10.2803V39.8789ZM22.3193 39.8789H24.8291V37.3691H22.3193V39.8789ZM19.3096 36.8691H21.8193V34.3594H19.3096V36.8691ZM64.459 36.8691H66.9688V34.3594H64.459V36.8691ZM4.25977 33.8594H9.78027V31.3496H4.25977V33.8594ZM13.29 33.8594H15.7998V31.3496H13.29V33.8594ZM61.4482 33.8594H63.959V31.3496H61.4482V33.8594ZM73.4883 31.3496H67.4688V33.8594H75.998V30.8496H82.0186V28.3398H73.4883V31.3496ZM22.3193 22.3193H0.75V0.75H22.3193V22.3193ZM64.459 22.3193H60.9482V15.7998H64.459V22.3193ZM88.5381 22.3193H66.9688V0.75H88.5381V22.3193ZM4.25977 18.8096H18.8096V4.25977H4.25977V18.8096ZM70.4785 18.8096H85.0283V4.25977H70.4785V18.8096ZM16.2998 16.2998H6.76953V6.76953H16.2998V16.2998ZM82.5186 16.2998H72.9883V6.76953H82.5186V16.2998ZM43.3887 13.29H39.8789V9.78027H43.3887V13.29Z" fill="#4f3a32"/>
</svg>
