<svg width="345" height="80" viewBox="0 0 345 80" fill="none" xmlns="http://www.w3.org/2000/svg">
<path d="M164.033 58.729C164.033 46.0152 164.033 33.3014 164.033 20.5876C164.207 20.5876 164.346 20.5876 164.485 20.5876C169.069 20.5876 173.653 20.5531 178.237 20.5876C181.919 20.622 185.53 21.2422 188.795 23.0339C193.171 25.4457 195.949 29.1324 197.234 33.9216C197.72 35.7477 197.929 37.5738 197.929 39.4688C197.963 43.0176 197.373 46.4631 195.602 49.6329C193.136 54.0431 189.351 56.7306 184.454 57.971C182.44 58.4878 180.356 58.729 178.272 58.729C173.618 58.729 168.965 58.729 164.311 58.729C164.276 58.729 164.172 58.729 164.033 58.729ZM170.944 52.5616C173.028 52.5616 175.077 52.5616 177.091 52.5616C178.758 52.5271 180.425 52.4238 182.058 52.0792C185.982 51.2178 188.76 49.0127 190.115 45.2227C191.434 41.5361 191.4 37.8149 190.08 34.1283C189.107 31.4064 187.302 29.3391 184.593 28.1332C182.683 27.3063 180.634 26.9273 178.55 26.8928C176.154 26.8239 173.792 26.8583 171.396 26.8583C171.257 26.8583 171.118 26.8583 170.979 26.8583C170.944 35.4031 170.944 43.9479 170.944 52.5616Z" fill="white"/>
<path d="M239.708 58.7297C237.277 58.7297 234.915 58.7297 232.554 58.7297C232.241 58.7297 232.241 58.5229 232.137 58.3507C231.13 56.18 230.123 54.0094 229.116 51.8043C228.977 51.4597 228.803 51.3563 228.421 51.3563C223.212 51.3563 218.037 51.3563 212.828 51.3563C212.481 51.3563 212.307 51.4597 212.168 51.7698C211.161 53.9405 210.154 56.1456 209.147 58.3162C209.008 58.6263 208.834 58.7297 208.487 58.7297C206.368 58.6952 204.25 58.7297 202.166 58.7297C202.027 58.7297 201.854 58.7297 201.645 58.7297C201.958 58.0406 202.27 57.3859 202.583 56.7657C207.688 46.0503 212.793 35.3349 217.898 24.6195C218.489 23.3791 219.079 22.1387 219.669 20.8984C219.774 20.6572 219.913 20.5538 220.156 20.5883C220.642 20.6227 221.232 20.4505 221.58 20.6916C221.927 20.8984 222.031 21.4841 222.239 21.8976C228.004 34.0601 233.769 46.1881 239.534 58.3507C239.569 58.454 239.604 58.5574 239.708 58.7297ZM220.642 33.0953C218.732 37.2299 216.891 41.33 215.016 45.3957C218.801 45.3957 222.517 45.3957 226.303 45.3957C224.393 41.2956 222.552 37.2299 220.642 33.0953Z" fill="white"/>
<path d="M156.011 58.7306C154.518 58.7306 153.129 58.7306 151.705 58.7306C150.802 58.7306 149.899 58.7306 148.996 58.7306C148.718 58.7306 148.579 58.6617 148.475 58.3861C147.433 56.1465 146.391 53.907 145.384 51.6674C145.28 51.4262 145.141 51.3573 144.898 51.3573C139.619 51.3573 134.34 51.3573 129.062 51.3573C128.749 51.3573 128.645 51.4951 128.541 51.7363C127.533 53.9414 126.492 56.181 125.484 58.3861C125.38 58.6617 125.241 58.7306 124.929 58.7306C122.637 58.7306 120.345 58.7306 117.983 58.7306C118.052 58.5583 118.087 58.455 118.157 58.3516C123.852 46.3958 129.548 34.44 135.243 22.4842C135.486 21.933 135.764 21.3817 136.042 20.8649C136.112 20.727 136.285 20.6237 136.424 20.6237C136.806 20.5892 137.188 20.6237 137.535 20.5892C137.848 20.5548 137.987 20.6926 138.091 20.9338C139.237 23.3801 140.418 25.8263 141.564 28.2726C146.113 37.851 150.663 47.4295 155.178 56.9734C155.456 57.5592 155.733 58.1104 156.011 58.7306ZM142.606 45.4311C140.73 41.2965 138.855 37.2309 136.945 33.0963C135.035 37.2653 133.194 41.331 131.284 45.4311C135.104 45.4311 138.82 45.4311 142.606 45.4311Z" fill="white"/>
<path d="M111.384 26.1759C109.752 27.2785 108.12 28.3811 106.557 29.4491C105.862 28.7945 105.272 28.1054 104.577 27.5541C102.91 26.3138 100.931 26.0037 98.9167 26.1759C97.6664 26.2793 96.5551 26.7272 95.5827 27.5541C94.0546 28.8634 94.1935 31.5164 95.3396 32.6879C96.3467 33.7215 97.5622 34.2384 98.8125 34.7896C100.966 35.6855 103.154 36.5124 105.272 37.4426C107.147 38.2696 108.884 39.3032 110.412 40.6814C112.079 42.1974 112.982 44.0924 113.294 46.332C113.538 48.227 113.468 50.0875 112.843 51.9136C111.697 55.2902 109.301 57.4608 105.932 58.5634C103.431 59.3903 100.861 59.5281 98.2568 59.3559C95.9994 59.218 93.8115 58.7012 91.7972 57.6676C88.7758 56.1171 86.5532 53.8086 85.1293 50.7077C86.8657 49.6396 88.6022 48.5715 90.3039 47.5034C90.8248 48.2614 91.2763 49.0194 91.8319 49.7085C93.36 51.6035 95.3743 52.7061 97.7706 53.0851C99.507 53.3607 101.209 53.3952 102.91 52.9128C105.689 52.1548 107.217 49.0539 106.106 46.4698C105.758 45.6084 105.098 45.0227 104.369 44.5059C102.598 43.3 100.618 42.5764 98.6388 41.8184C96.1731 40.8881 93.742 39.8889 91.5541 38.3385C89.3662 36.7535 88.0465 34.7207 87.6992 32.0677C87.0046 26.7272 89.4704 22.8338 94.4366 20.8699C96.4162 20.0775 98.4652 19.9052 100.584 20.043C102.702 20.1808 104.716 20.6287 106.592 21.6279C108.467 22.5582 110.586 24.591 111.384 26.1759Z" fill="white"/>
<path d="M311.388 58.7303C309.86 58.7303 308.367 58.7303 306.873 58.7303C306.734 58.7303 306.596 58.558 306.526 58.4202C305.658 56.4563 304.79 54.4924 303.921 52.494C303.505 51.5293 303.053 50.5645 302.636 49.5998C302.532 49.3931 302.428 49.3242 302.22 49.3242C296.663 49.3242 291.106 49.3242 285.55 49.3242C285.307 49.3242 285.237 49.4275 285.133 49.6343C283.848 52.5629 282.563 55.4916 281.278 58.4202C281.174 58.6958 281.035 58.7648 280.723 58.7648C279.333 58.7648 277.979 58.7648 276.555 58.7648C276.798 58.179 277.041 57.6622 277.284 57.1109C282.598 45.0518 287.877 33.0271 293.19 20.9679C293.329 20.6923 293.468 20.6234 293.781 20.5889C294.371 20.5545 294.649 20.6923 294.927 21.278C299.268 31.201 303.678 41.1584 308.054 51.0813C309.131 53.5276 310.207 55.9395 311.284 58.3857C311.319 58.4547 311.353 58.558 311.388 58.7303ZM300.831 45.3619C298.538 39.9869 296.246 34.6809 293.92 29.2715C291.593 34.6809 289.301 39.9869 287.008 45.3619C291.627 45.3619 296.177 45.3619 300.831 45.3619Z" fill="white"/>
<path d="M252.176 58.6945C250.682 58.6945 249.258 58.6945 247.8 58.6945C247.8 45.9807 247.8 33.3014 247.8 20.5876C247.973 20.5876 248.112 20.5876 248.251 20.5876C252.28 20.5876 256.308 20.5531 260.337 20.5876C265.998 20.622 270.478 24.5499 271.52 29.2357C272.423 33.3358 271.728 37.1259 268.672 40.2612C266.796 42.1907 264.539 43.3622 261.865 43.6723C261.136 43.7412 260.372 43.7756 259.642 43.8101C257.316 43.8101 254.989 43.8101 252.697 43.8101C252.523 43.8101 252.384 43.8101 252.176 43.8101C252.176 48.806 252.176 53.733 252.176 58.6945ZM252.176 39.8133C252.28 39.8133 252.349 39.8478 252.419 39.8478C254.989 39.8478 257.559 39.8478 260.129 39.8478C261.17 39.8478 262.178 39.6411 263.15 39.2276C267.561 37.1948 268.568 32.0955 266.623 28.5122C265.164 25.8247 262.768 24.5843 259.677 24.6188C257.316 24.6188 254.954 24.6188 252.592 24.6188C252.453 24.6188 252.315 24.6188 252.176 24.6532C252.176 29.6836 252.176 34.714 252.176 39.8133Z" fill="white"/>
<path d="M330.837 58.6961C329.378 58.6961 327.954 58.6961 326.461 58.6961C326.461 58.5238 326.461 58.3515 326.461 58.1793C326.461 53.2522 326.461 48.3597 326.461 43.4326C326.461 43.1915 326.391 42.9503 326.287 42.7435C321.946 35.5425 317.64 28.3415 313.299 21.106C313.194 20.9681 313.125 20.7959 312.986 20.5891C313.125 20.5547 313.229 20.5547 313.333 20.5547C314.688 20.5547 316.042 20.5547 317.431 20.5547C317.709 20.5547 317.813 20.6581 317.952 20.8648C321.043 25.9985 324.099 31.1323 327.19 36.266C327.676 37.093 328.197 37.9199 328.718 38.7812C329.066 38.1955 329.378 37.6787 329.691 37.1619C332.92 31.718 336.15 26.3086 339.38 20.8648C339.519 20.6581 339.658 20.5547 339.936 20.5547C341.255 20.5891 342.54 20.5547 343.86 20.5547C343.964 20.5547 344.068 20.5547 344.242 20.5547C344.068 20.8303 343.964 21.0715 343.825 21.2782C339.588 28.3415 335.386 35.4391 331.149 42.5024C330.941 42.8469 330.871 43.157 330.871 43.536C330.871 48.3941 330.871 53.2522 330.871 58.1104C330.837 58.3515 330.837 58.5238 330.837 58.6961Z" fill="white"/>
<path d="M19.8519 59.7793L10.6853 50.9531L7.66883 54.0224C7.04878 52.496 6.59632 50.9199 6.34495 49.3107C5.37298 43.0892 7.1996 36.5028 11.8751 31.592C11.9589 31.5091 12.0427 31.4261 12.1264 31.3432L23.9743 19.2819C25.6166 17.6062 25.5831 14.9352 23.8905 13.3259C22.198 11.7 19.5 11.7332 17.8744 13.4088L6.02654 25.4701C-2.16811 33.7985 -1.98377 47.1871 6.44549 55.2832L15.6121 64.1094L19.8519 59.7793Z" fill="#8CEBD1"/>
<path d="M42.2905 36.9271L30.4426 48.9884C26.5715 52.9203 20.7062 53.8328 15.9302 51.6595C14.6399 51.0788 13.4333 50.2659 12.3775 49.2373C7.41717 44.4592 7.21608 36.6119 11.8916 31.6016C7.21608 36.4958 5.3727 43.0822 6.36142 49.3036C6.83064 52.3397 7.97019 55.2762 9.78005 57.9141C10.5677 59.0588 11.4894 60.1538 12.5284 61.1658L30.8616 78.8015C32.5541 80.4274 35.2522 80.3942 36.8777 78.7186C38.52 77.0429 38.4865 74.3719 36.7939 72.7626L24.5773 60.9833C28.9847 60.3031 33.2077 58.2625 36.5593 54.8614L48.4072 42.8001C50.0495 41.1245 50.0159 38.4534 48.3234 36.8442C46.6308 35.2183 43.9328 35.2681 42.2905 36.9271Z" fill="#71DAC1"/>
<path d="M18.4774 55.1125C17.4049 54.0839 16.567 52.9059 15.9302 51.6451C20.7062 53.8184 26.5715 52.9225 30.4426 48.974L42.2905 36.9127C43.9328 35.2371 46.6308 35.2039 48.3066 36.8298C49.9992 38.4556 50.0327 41.1267 48.3904 42.7858L36.5425 54.847C36.4587 54.93 36.3749 55.0129 36.2911 55.0959C31.3643 59.8739 23.4545 59.9071 18.4774 55.1125Z" fill="#60C3B0"/>
<path d="M46.8159 20.2451L55.9825 29.0713L58.9989 26.002C59.619 27.5284 60.0714 29.1045 60.3228 30.7137C61.2948 36.9352 59.4682 43.5216 54.7927 48.4324C54.7089 48.5153 54.6251 48.5983 54.5413 48.6812L42.6934 60.7259C41.0511 62.4015 41.0847 65.0726 42.7772 66.6819C44.4698 68.3077 47.1678 68.2746 48.7933 66.5989L60.6412 54.5377C68.8359 46.2092 68.6515 32.8207 60.2223 24.7246L51.0557 15.8984L46.8159 20.2451Z" fill="#F19E8A"/>
<path d="M18.3439 43.1567C16.6513 41.5309 16.6178 38.8598 18.2601 37.2007L30.108 25.1395C33.4428 21.7384 37.6826 19.6978 42.0899 19.0176L48.2904 24.7911C49.3629 25.8197 50.1002 27.0971 50.7203 28.358C45.9442 26.1847 40.079 27.0806 36.2079 31.0291L24.36 43.0904C22.7345 44.7494 20.0364 44.7826 18.3439 43.1567Z" fill="#EF876D"/>
<path d="M48.1899 24.8878C49.2624 25.9164 50.1003 27.0943 50.7371 28.3552C45.9611 26.1818 40.0958 27.0777 36.2247 31.0262L24.3768 43.0875C22.7345 44.7632 20.0365 44.7963 18.3607 43.1705C16.6682 41.5446 16.6346 38.8735 18.2769 37.2145L30.1248 25.1532C30.2086 25.0703 30.2924 24.9873 30.3762 24.9044C35.303 20.1263 43.2295 20.1097 48.1899 24.8878Z" fill="#EE7460"/>
<path d="M35.8057 1.19697L54.1222 18.8492C55.1612 19.8613 56.0829 20.9396 56.8705 22.101C58.6804 24.7223 59.8199 27.6754 60.2891 30.7114C61.2611 36.9329 59.4345 43.5193 54.759 48.4301C59.4177 43.4197 59.2334 35.5724 54.273 30.7944C53.2005 29.7658 51.9939 28.9528 50.7203 28.3722C50.1003 27.1113 49.2456 25.95 48.1731 24.9048L29.8734 7.23591C28.1809 5.61004 28.1473 2.93897 29.7896 1.27992C31.4319 -0.395715 34.1299 -0.428896 35.8057 1.19697Z" fill="#EF876D"/>
</svg>
