<svg width="23" height="36" viewBox="0 0 23 36" fill="none" xmlns="http://www.w3.org/2000/svg">
<path d="M16.4614 0.0646754C18.3607 -0.315176 20.108 1.01431 20.3739 3.1035C20.6398 5.1547 19.2723 7.12992 17.373 7.50977C15.4738 7.88962 13.7265 6.56014 13.4606 4.47095C13.1947 2.41975 14.5621 0.444527 16.4614 0.0646754Z" fill="#BC204B"/>
<path d="M10.0798 4.81203C11.4092 4.66009 12.7007 5.83763 12.8907 7.39502C13.1186 8.9904 12.2069 10.3958 10.8395 10.5478C9.50999 10.6997 8.21848 9.52219 8.02856 7.9648C7.80064 6.36942 8.7123 4.96398 10.0798 4.81203Z" fill="#0072CE"/>
<path d="M5.5596 9.29585C6.62319 9.14391 7.72476 10.0555 7.95267 11.3091C8.18059 12.6006 7.53484 13.7401 6.43327 13.8921C5.36968 14.044 4.2681 13.1323 4.04019 11.8788C3.81228 10.6253 4.45803 9.44779 5.5596 9.29585Z" fill="#BA9CC5"/>
<path d="M2.74867 13.9673C3.77427 13.8913 4.79986 14.803 4.98979 15.9805C5.17972 17.1581 4.49599 18.2217 3.43241 18.2976C2.40681 18.3736 1.3812 17.462 1.19127 16.2844C1.03933 15.0689 1.72307 14.0433 2.74867 13.9673Z" fill="#BCE194"/>
<path d="M0.0137079 20.9566C-0.100248 20.007 0.507508 19.2093 1.41915 19.1713C2.3308 19.1333 3.16647 19.893 3.28042 20.8806C3.39438 21.8302 2.78662 22.6279 1.87498 22.6659C0.963335 22.7039 0.127663 21.9442 0.0137079 20.9566Z" fill="#E2A900"/>
<path d="M17.183 35.8472C18.9303 37.0627 8.40845 30.7192 6.54718 28.4401C3.39441 24.6796 4.34404 17.9562 11.1434 13.246C17.297 8.99169 22.6529 8.26998 22.0451 12.6003L21.9312 13.5879V13.6259C21.9312 13.5879 21.9312 13.5499 21.9312 13.5119C22.1591 10.0933 17.9807 10.739 13.0426 14.1577C7.49681 17.9942 7.04099 23.654 8.71234 27.2626C10.2317 30.5293 17.183 35.8472 17.183 35.8472Z" fill="#BC204B"/>
</svg>
