<svg width="319" height="56" viewBox="0 0 319 56" fill="none" xmlns="http://www.w3.org/2000/svg">
<path d="M25.6073 0.100605C28.5617 -0.490267 31.2798 1.57779 31.6935 4.82758C32.1071 8.01829 29.9799 11.0908 27.0254 11.6817C24.0709 12.2725 21.3528 10.2045 20.9392 6.95471C20.5256 3.764 22.6528 0.691476 25.6073 0.100605Z" fill="#BC204B"/>
<path d="M15.6803 7.48734C17.7483 7.251 19.7574 9.08269 20.0528 11.5053C20.4074 13.9869 18.9892 16.1732 16.862 16.4095C14.7938 16.6459 12.7848 14.8142 12.4894 12.3915C12.1348 9.90988 13.553 7.72369 15.6803 7.48734Z" fill="#0072CE"/>
<path d="M8.64785 14.4613C10.3023 14.225 12.0159 15.6431 12.3705 17.5929C12.7251 19.6019 11.7205 21.3745 10.0069 21.6108C8.35241 21.8472 6.6388 20.4291 6.28426 18.4792C5.92972 16.5294 6.93425 14.6977 8.64785 14.4613Z" fill="#BA9CC5"/>
<path d="M4.27631 21.7256C5.87174 21.6075 7.46716 23.0256 7.76261 24.8573C8.05805 26.6889 6.99445 28.3434 5.33994 28.4616C3.74452 28.5798 2.14908 27.1616 1.85363 25.33C1.61727 23.4392 2.68089 21.8438 4.27631 21.7256Z" fill="#BCE194"/>
<path d="M0.021324 32.5976C-0.155945 31.1204 0.789479 29.8796 2.20763 29.8205C3.62579 29.7614 4.92575 30.9432 5.10303 32.4794C5.2803 33.9566 4.33487 35.1975 2.91672 35.2565C1.49856 35.3156 0.198594 34.1339 0.021324 32.5976Z" fill="#E2A900"/>
<path d="M26.7292 55.7608C29.4474 57.6516 13.0794 47.784 10.1841 44.2388C5.27964 38.3892 6.75689 27.9307 17.3339 20.604C26.9065 13.9862 35.2382 12.8636 34.2927 19.5995L34.1154 21.1357V21.1949C34.1154 21.1357 34.1154 21.0767 34.1154 21.0176C34.47 15.6997 27.9701 16.7043 20.2884 22.022C11.6614 27.9899 10.9522 36.7938 13.5522 42.4071C15.9158 47.4886 26.7292 55.7608 26.7292 55.7608Z" fill="#BC204B"/>
<path d="M58.2261 40.2333L54.2325 27.2812H50.8866L46.893 40.2333L42.4678 27.2812H38.3662L45.1661 46.8173H48.62L52.6136 34.4049L56.3913 46.8173H60.0611L66.7529 27.2812H62.6513L58.2261 40.2333Z" fill="black"/>
<path d="M82.8354 29.3311C81.2164 27.8199 79.2736 27.0645 76.899 27.0645C74.2007 27.0645 71.8261 28.0359 70.0992 29.9787C68.2644 31.9215 67.4009 34.296 67.4009 37.2102C67.4009 40.1245 68.3722 42.4989 70.0992 44.3339C71.9341 46.1689 74.2007 47.0322 77.007 47.0322C79.4895 47.0322 81.4322 46.2767 83.0512 44.6577V46.8164H86.937V27.2803H82.8354V29.3311ZM81.3242 41.5276C80.1371 42.715 78.8418 43.2546 77.2228 43.2546C75.4959 43.2546 74.0927 42.715 73.0134 41.5276C71.9341 40.3403 71.3943 38.9372 71.3943 37.1022C71.3943 35.1594 71.9341 33.7563 73.1213 32.5692C74.2007 31.3819 75.6039 30.8422 77.2228 30.8422C78.8418 30.8422 80.2449 31.3819 81.3242 32.677C82.4037 33.8643 82.9434 35.3754 82.9434 37.2102C82.9434 38.9372 82.4037 40.4483 81.3242 41.5276Z" fill="black"/>
<path d="M91.9014 46.8184H96.0029V18L91.9014 18.4317V46.8184Z" fill="black"/>
<path d="M111.33 35.4853L118.778 27.2823H113.705L105.286 36.7806V18L101.185 18.4317V46.8184H105.286V42.2851L108.632 38.6154L113.921 46.8184H118.67L111.33 35.4853Z" fill="black"/>
<path d="M125.469 27.2812H121.368V46.8173H125.469V27.2812Z" fill="black"/>
<path d="M125.253 20.2695C124.174 19.1902 122.447 19.2982 121.476 20.2695C120.936 20.8092 120.72 21.4568 120.72 22.1045C120.72 22.86 120.936 23.5076 121.476 23.9393C122.015 24.4789 122.663 24.6949 123.418 24.6949C124.174 24.6949 124.822 24.4789 125.361 23.9393C125.901 23.3996 126.117 22.752 126.117 21.9965C126.009 21.4568 125.793 20.8092 125.253 20.2695Z" fill="black"/>
<path d="M134.643 37.1028C134.643 35.16 135.183 33.6489 136.154 32.5696C137.125 31.4903 138.421 30.9506 140.04 30.9506C142.738 30.9506 144.141 32.6776 144.141 36.2393V46.8169H148.243V35.268C148.243 32.5696 147.595 30.5188 146.3 29.1156C145.005 27.7125 143.278 26.957 141.011 26.957C138.421 26.957 136.37 27.8205 134.751 29.5475V27.1729H130.649V46.7089H134.751V37.1028H134.643Z" fill="black"/>
<path d="M166.808 29.2231C165.189 27.7121 163.138 27.0645 160.764 27.0645C158.174 27.0645 155.906 28.0359 154.071 29.8707C152.345 31.7057 151.373 34.0801 151.373 36.7786C151.373 39.5848 152.345 41.9593 154.071 43.7943C155.906 45.629 158.174 46.4925 160.764 46.4925C163.138 46.4925 165.08 45.737 166.7 44.3339V45.737C166.7 47.1402 166.268 48.3275 165.189 49.2988C164.216 50.2703 162.706 50.7019 160.871 50.7019C158.82 50.7019 156.662 50.0545 154.395 48.8671L153.855 48.5433L152.884 52.3211L153.208 52.5369C155.475 53.94 158.174 54.5877 160.98 54.5877C164.216 54.5877 166.592 53.7242 168.212 51.9972C169.722 50.2703 170.586 47.8957 170.586 44.9816V27.3883H166.592V29.2231H166.808ZM165.296 40.988C164.216 42.0673 162.922 42.607 161.196 42.607C159.577 42.607 158.281 42.0673 157.201 40.988C156.122 39.9087 155.582 38.5055 155.582 36.6706C155.582 34.9436 156.122 33.6485 157.201 32.5692C158.281 31.4897 159.577 30.95 161.196 30.95C162.813 30.95 164.216 31.4897 165.296 32.5692C166.376 33.6485 166.916 34.9436 166.916 36.6706C166.916 38.3975 166.376 39.8007 165.296 40.988Z" fill="black"/>
<path d="M192.976 44.5215C192.088 44.5215 191.533 44.3018 191.2 43.7527C190.867 43.2036 190.645 42.3249 190.645 41.2266V31.0123H196.971V28.2666H190.645V21.457L187.427 21.7865V28.2666H184.986V31.0123H187.427V41.5562C187.427 45.51 189.092 47.377 192.421 47.377C194.086 47.377 195.639 46.9378 197.082 46.169L196.194 43.4232C195.084 44.1919 193.975 44.5215 192.976 44.5215Z" fill="black"/>
<path d="M212.567 27.7166C209.466 27.7166 207.139 28.8464 205.589 31.1061H205.478V18H205.367L202.266 18.339V47.376H205.478V37.5463C205.478 35.3996 206.032 33.7048 207.139 32.462C208.247 31.2191 209.798 30.6542 211.681 30.6542C214.783 30.6542 216.333 32.6879 216.333 36.6424V47.376H219.546V35.7385C219.546 33.0269 218.881 30.9932 217.663 29.7503C216.444 28.3946 214.672 27.7166 212.567 27.7166Z" fill="black"/>
<path d="M262.097 44.5215C261.208 44.5215 260.654 44.3018 260.32 43.7527C259.988 43.2036 259.766 42.3249 259.766 41.2266V31.0123H266.09V28.2666H259.766V21.457L256.547 21.7865V28.2666H254.106V31.0123H256.547V41.5562C256.547 45.51 258.211 47.377 261.54 47.377C263.205 47.377 264.759 46.9378 266.202 46.169L265.314 43.4232C264.203 44.1919 263.095 44.5215 262.097 44.5215Z" fill="black"/>
<path d="M283.843 31.3721C282.185 29.3317 279.975 28.3652 277.213 28.3652C274.561 28.3652 272.349 29.3317 270.582 31.1574C268.814 32.9829 267.93 35.2381 267.93 38.0302C267.93 40.8226 268.814 43.0777 270.582 44.796C272.349 46.5141 274.561 47.3732 277.213 47.3732C279.975 47.3732 282.185 46.2994 283.843 44.2589V47.1585H286.938V28.6874H283.733V31.3721H283.843ZM282.076 42.6481C280.86 43.8294 279.312 44.4738 277.544 44.4738C275.665 44.4738 274.119 43.8294 272.903 42.6481C271.688 41.4668 271.134 39.856 271.134 37.923C271.134 35.8825 271.797 34.2717 273.013 33.0904C274.229 31.8018 275.777 31.2648 277.656 31.2648C279.533 31.2648 280.97 31.909 282.185 33.1978C283.403 34.4864 283.955 36.0972 283.955 38.0302C283.955 39.856 283.403 41.4668 282.076 42.6481Z" fill="black"/>
<path d="M292.122 18.4501V47.376H295.578V18H295.455L292.122 18.4501Z" fill="black"/>
<path d="M317.936 27.9045H314.284L305.516 38.4844H305.412V18L302.49 18.4501V47.376H305.412V42.9865L309.169 38.4844H309.274L314.596 47.376H318.042L311.257 36.0083L317.936 27.9045Z" fill="black"/>
<path d="M239.664 30.9573C238.064 29.2292 236.037 28.3652 233.477 28.3652C230.917 28.3652 228.89 29.2292 227.183 31.0652C225.477 32.9012 224.73 35.1692 224.73 37.8691C224.73 40.6771 225.583 42.9451 227.29 44.6731C228.996 46.4012 231.236 47.3732 233.796 47.3732C236.996 47.3732 239.45 46.1852 241.262 43.9172L239.129 42.0811C237.85 43.8091 236.142 44.5653 234.01 44.5653C232.304 44.5653 230.917 44.0253 229.85 43.0532C228.782 41.9732 228.037 40.6771 227.823 38.8412H242.01V38.4091C242.01 38.0853 242.01 37.7613 242.01 37.6532C242.01 34.9533 241.262 32.6853 239.664 30.9573ZM238.277 36.3573H227.93C228.25 34.7371 228.89 33.5491 229.957 32.6851C230.917 31.8213 232.09 31.3892 233.369 31.3892C233.477 31.3892 233.583 31.3892 233.69 31.3892C235.183 31.3892 236.356 31.8213 237.316 32.7932C238.277 33.6572 238.81 34.9531 239.129 36.4652H238.277V36.3573Z" fill="black"/>
</svg>
