<svg width="221" height="56" viewBox="0 0 221 56" fill="none" xmlns="http://www.w3.org/2000/svg">
<path fill-rule="evenodd" clip-rule="evenodd" d="M31.4681 10.5938H9.59955C9.157 10.5938 8.90855 11.1111 9.18159 11.4653L20.0525 25.6252C20.1586 25.7634 20.3643 25.7634 20.4704 25.6252L22.7543 22.6474C22.8281 22.5499 22.8281 22.413 22.7543 22.3156L16.9857 14.8078C16.8498 14.6314 16.974 14.372 17.194 14.372H28.9823C29.0639 14.372 29.1415 14.3338 29.1907 14.268L31.6777 11.0295C31.8136 10.8518 31.6894 10.5938 31.4681 10.5938" fill="#03D8C3"/>
<path fill-rule="evenodd" clip-rule="evenodd" d="M47.262 30.3751L44.9277 33.3417C44.8509 33.4403 44.8509 33.5771 44.9277 33.6745L50.8363 41.185C50.9752 41.3626 50.8482 41.6218 50.6219 41.6218H37.6084C37.4417 41.6218 37.2842 41.5442 37.181 41.4139L28.508 30.3751C28.3995 30.237 28.189 30.237 28.0805 30.3751L25.7462 33.3417C25.6695 33.4403 25.6695 33.5771 25.7449 33.6745L34.799 45.1988C34.9022 45.3303 35.0597 45.4066 35.2264 45.4066H58.3898C58.841 45.4066 59.0951 44.8896 58.8172 44.5357L47.6894 30.3751C47.5809 30.237 47.3705 30.237 47.262 30.3751" fill="#03D8C3"/>
<path fill-rule="evenodd" clip-rule="evenodd" d="M37.3207 18.2692L34.8168 21.3361C34.7356 21.4368 34.7356 21.5782 34.8182 21.6789L39.2776 27.1354C39.3944 27.2782 39.6209 27.2796 39.7376 27.1368L42.2486 24.0685C42.3327 23.9678 42.3327 23.8264 42.2486 23.7244L37.7807 18.2692C37.6639 18.1264 37.4375 18.1264 37.3207 18.2692" fill="#03D8C3"/>
<path fill-rule="evenodd" clip-rule="evenodd" d="M42.7229 0.207291L0.11392 55.1315C-0.159632 55.4844 0.0904727 56 0.534669 56H23.345C23.5091 56 23.6655 55.9239 23.7658 55.7927L31.9241 45.276C32.001 45.1789 32.001 45.0424 31.9254 44.9454L29.6263 41.9777C29.5195 41.8399 29.3124 41.8399 29.2055 41.9777L21.421 52.0182C21.3207 52.1481 21.1644 52.2242 21.0003 52.2242H8.19022C7.96878 52.2242 7.84372 51.967 7.9805 51.7899L45.0677 3.98182C45.1693 3.85193 45.3243 3.77584 45.4884 3.77584H58.2985C58.5212 3.77584 58.6463 4.03299 58.5095 4.2101L34.5737 35.0623C34.4981 35.1594 34.4981 35.2958 34.5737 35.3929L36.8715 38.3606C36.9783 38.4997 37.1854 38.4997 37.2923 38.3619L66.3748 0.869834C66.6483 0.515603 66.3995 0 65.954 0H43.1437C42.9795 0 42.8245 0.0760941 42.7229 0.207291" fill="#6200EE"/>
<path fill-rule="evenodd" clip-rule="evenodd" d="M220.664 19.7535V16.2882C220.664 16.1293 220.537 16 220.381 16H203.375C203.219 16 203.092 16.1293 203.092 16.2882V39.7118C203.092 39.8707 203.219 40 203.375 40H220.381C220.537 40 220.664 39.8707 220.664 39.7118V36.2465C220.664 36.0876 220.537 35.9583 220.381 35.9583H207.78C207.624 35.9583 207.497 35.8304 207.497 35.6701V30.2071C207.497 30.0483 207.624 29.9189 207.78 29.9189H218.884C219.04 29.9189 219.167 29.7896 219.167 29.6307V26.1654C219.167 26.0066 219.04 25.8772 218.884 25.8772H207.78C207.624 25.8772 207.497 25.7493 207.497 25.589V20.3299C207.497 20.171 207.624 20.0417 207.78 20.0417H220.381C220.537 20.0417 220.664 19.9124 220.664 19.7535" fill="#6200EE"/>
<path fill-rule="evenodd" clip-rule="evenodd" d="M147.179 19.7535V16.2882C147.179 16.1293 147.052 16 146.896 16H129.891C129.735 16 129.607 16.1293 129.607 16.2882V39.7118C129.607 39.8707 129.735 40 129.891 40H146.896C147.052 40 147.179 39.8707 147.179 39.7118V36.2465C147.179 36.0876 147.052 35.9583 146.896 35.9583H134.296C134.14 35.9583 134.013 35.8304 134.013 35.6701V30.2071C134.013 30.0483 134.14 29.9189 134.296 29.9189H145.4C145.556 29.9189 145.683 29.7896 145.683 29.6307V26.1654C145.683 26.0066 145.556 25.8772 145.4 25.8772H134.296C134.14 25.8772 134.013 25.7493 134.013 25.589V20.3299C134.013 20.171 134.14 20.0417 134.296 20.0417H146.896C147.052 20.0417 147.179 19.9124 147.179 19.7535Z" fill="#6200EE"/>
<path fill-rule="evenodd" clip-rule="evenodd" d="M168.298 16.2882V32.3918L155.691 16.1111C155.636 16.0408 155.554 16 155.465 16H152.256C152.099 16 151.972 16.1293 151.972 16.2882V39.7118C151.972 39.8707 152.099 40 152.256 40H156.127C156.284 40 156.412 39.8707 156.412 39.7118V23.6082L169.021 39.8889C169.074 39.9592 169.157 40 169.245 40H172.454C172.611 40 172.739 39.8707 172.739 39.7118V16.2882C172.739 16.1293 172.611 16 172.454 16H168.583C168.426 16 168.298 16.1293 168.298 16.2882" fill="#6200EE"/>
<path fill-rule="evenodd" clip-rule="evenodd" d="M124.799 24.7399C124.534 29.0951 120.944 32.3889 116.832 32.3889H111.735C111.586 32.3889 111.464 32.5183 111.464 32.6771V39.7118C111.464 39.8707 111.343 40 111.194 40H107.515C107.364 40 107.243 39.8707 107.243 39.7118V16.2882C107.243 16.1293 107.364 16 107.515 16H117.097C121.529 16 125.09 19.9672 124.799 24.7399M116.514 20.0412H111.735C111.586 20.0412 111.464 20.1705 111.464 20.3294V28.0585C111.464 28.2188 111.586 28.3467 111.735 28.3467H116.682C118.969 28.3467 120.798 26.2633 120.576 23.7863C120.381 21.6269 118.558 20.0412 116.514 20.0412" fill="#6200EE"/>
<path fill-rule="evenodd" clip-rule="evenodd" d="M189.361 36.0905C185.188 36.0905 181.804 32.4679 181.804 27.9995C181.804 23.5312 185.188 19.9086 189.361 19.9086C191.87 19.9086 194.092 21.2208 195.466 23.2374C195.572 23.3925 195.79 23.4047 195.904 23.2565L198.151 20.3383C198.235 20.2309 198.231 20.0745 198.14 19.9725C195.899 17.45 192.624 15.8917 188.985 16.0059C182.867 16.199 177.788 21.2983 177.541 27.5032C177.268 34.3567 182.665 40 189.361 40C192.895 40 196.062 38.424 198.229 35.9328C198.318 35.8308 198.321 35.6758 198.238 35.5683L195.975 32.6311C195.86 32.4802 195.639 32.4951 195.534 32.6542C194.167 34.7307 191.915 36.0905 189.361 36.0905" fill="#6200EE"/>
<path fill-rule="evenodd" clip-rule="evenodd" d="M93.4683 27.8229L102.389 16.4653C102.538 16.2769 102.402 16 102.16 16H97.1783C97.0892 16 97.0058 16.0422 96.9507 16.1111L90.6982 24.0708C90.5823 24.2184 90.3576 24.2184 90.2417 24.0708L83.9893 16.1111C83.9355 16.0422 83.8507 16 83.7617 16H78.7784C78.5381 16 78.4024 16.2769 78.5508 16.4653L87.4716 27.8229C87.5536 27.9269 87.5536 28.0731 87.4716 28.1771L78.5508 39.5347C78.4024 39.7245 78.5381 40 78.7784 40H83.7617C83.8507 40 83.9355 39.9592 83.9893 39.8889L90.2417 31.9306C90.3576 31.783 90.5823 31.783 90.6982 31.9306L96.9507 39.8889C97.0044 39.9592 97.0892 40 97.1783 40H102.16C102.402 40 102.538 39.7245 102.389 39.5347L93.4683 28.1771C93.3864 28.0731 93.3864 27.9269 93.4683 27.8229" fill="#6200EE"/>
</svg>
