<svg width="1024" height="1024" viewBox="0 0 1024 1024" fill="none" xmlns="http://www.w3.org/2000/svg">
<path d="M380.553 704.847L291.18 618.793L261.77 648.718C255.725 633.837 251.313 618.47 248.862 602.78C239.386 542.121 257.195 477.905 302.781 430.025C303.597 429.216 304.414 428.407 305.231 427.599L420.747 310.003C436.759 293.665 436.432 267.623 419.93 251.933C403.428 236.081 377.122 236.404 361.273 252.741L245.758 370.337C165.861 451.538 167.659 582.075 249.843 661.011L339.216 747.065L380.553 704.847Z" fill="#8CEBD1"/>
<path d="M599.327 482.049L483.811 599.645C446.069 637.981 388.883 646.878 342.317 625.688C329.736 620.027 317.972 612.101 307.679 602.072C259.316 555.486 257.355 478.976 302.941 430.126C257.355 477.844 239.383 542.061 249.023 602.719C253.597 632.32 264.708 660.951 282.354 686.67C290.033 697.831 299.019 708.507 309.149 718.374L487.896 890.32C504.398 906.172 530.704 905.848 546.552 889.511C562.564 873.173 562.238 847.131 545.735 831.441L426.625 716.594C469.597 709.962 510.77 690.067 543.448 656.907L658.963 539.311C674.975 522.973 674.649 496.931 658.146 481.241C641.644 465.389 615.339 465.874 599.327 482.049Z" fill="#71DAC1"/>
<path d="M367.151 659.355C356.695 649.327 348.525 637.842 342.316 625.549C388.882 646.739 446.068 638.004 483.811 599.506L599.326 481.91C615.338 465.573 641.644 465.249 657.982 481.101C674.485 496.953 674.811 522.996 658.799 539.171L543.284 656.767C542.467 657.576 541.65 658.385 540.833 659.194C492.797 705.779 415.678 706.103 367.151 659.355Z" fill="#60C3B0"/>
<path d="M643.449 319.379L732.822 405.433L762.232 375.508C768.277 390.389 772.689 405.756 775.14 421.446C784.616 482.104 766.807 546.321 721.222 594.201C720.405 595.009 719.588 595.818 718.771 596.627L603.255 714.061C587.243 730.398 587.57 756.441 604.072 772.131C620.575 787.983 646.88 787.66 662.729 771.322L778.244 653.726C858.141 572.525 856.343 441.989 774.159 363.053L684.786 276.999L643.449 319.379Z" fill="#F19E8A"/>
<path d="M365.85 542.776C349.348 526.924 349.021 500.882 365.033 484.706L480.549 367.11C513.063 333.951 554.4 314.055 597.371 307.423L657.825 363.714C668.282 373.742 675.471 386.198 681.516 398.491C634.95 377.301 577.765 386.036 540.022 424.534L424.507 542.129C408.658 558.305 382.352 558.628 365.85 542.776Z" fill="#EF876D"/>
<path d="M656.845 364.654C667.302 374.683 675.471 386.168 681.68 398.461C635.114 377.271 577.929 386.006 540.186 424.504L424.671 542.1C408.659 558.437 382.353 558.76 366.014 542.908C349.512 527.056 349.185 501.014 365.197 484.838L480.713 367.242C481.53 366.434 482.347 365.625 483.164 364.816C531.2 318.231 608.482 318.069 656.845 364.654Z" fill="#EE7460"/>
<path d="M536.103 133.67L714.686 305.778C724.816 315.645 733.802 326.159 741.482 337.482C759.127 363.039 770.238 391.831 774.813 421.433C784.289 482.091 766.48 546.308 720.895 594.187C766.317 545.337 764.519 468.827 716.156 422.241C705.7 412.213 693.936 404.287 681.518 398.625C675.473 386.332 667.14 375.009 656.683 364.818L478.263 192.549C461.761 176.697 461.434 150.655 477.446 134.479C493.458 118.142 519.764 117.818 536.103 133.67Z" fill="#EF876D"/>
</svg>
