<svg width="160" height="76" viewBox="0 0 160 76" fill="none" xmlns="http://www.w3.org/2000/svg">
<path d="M28.4596 0.111816C31.7432 -0.544901 34.7641 1.75362 35.2238 5.36556C35.6835 8.91184 33.3194 12.3268 30.0358 12.9835C26.7522 13.6402 23.7313 11.3417 23.2716 7.72973C22.8119 4.18346 25.1761 0.768533 28.4596 0.111816Z" fill="#BC204B"/>
<path d="M17.4266 8.32068C19.7251 8.058 21.9579 10.0938 22.2863 12.7864C22.6803 15.5446 21.1042 17.9744 18.74 18.2371C16.4415 18.4998 14.2086 16.464 13.8803 13.7714C13.4863 11.0132 15.0624 8.58337 17.4266 8.32068Z" fill="#0072CE"/>
<path d="M9.61177 16.0701C11.4506 15.8074 13.3551 17.3835 13.7491 19.5507C14.1431 21.7836 13.0267 23.7537 11.1222 24.0164C9.28343 24.2791 7.37893 22.703 6.9849 20.5358C6.59087 18.3686 7.70729 16.3328 9.61177 16.0701Z" fill="#BA9CC5"/>
<path d="M4.75211 24.1475C6.52524 24.0162 8.29837 25.5923 8.62673 27.6282C8.95509 29.664 7.77302 31.5028 5.93421 31.6341C4.16107 31.7655 2.38792 30.1893 2.05956 28.1535C1.79687 26.052 2.97897 24.2789 4.75211 24.1475Z" fill="#BCE194"/>
<path d="M0.0236992 36.2313C-0.173316 34.5895 0.877419 33.2104 2.45354 33.1447C4.02966 33.079 5.47444 34.3925 5.67145 36.0999C5.86847 37.7417 4.81773 39.1208 3.24161 39.1865C1.66549 39.2522 0.220714 37.9387 0.0236992 36.2313Z" fill="#E2A900"/>
<path d="M29.7074 61.9747C32.7283 64.0762 14.5372 53.109 11.3193 49.1687C5.86855 42.6672 7.51035 31.0433 19.2656 22.9C29.9044 15.5448 39.1641 14.297 38.1134 21.7836L37.9163 23.491V23.5567C37.9163 23.491 37.9163 23.4254 37.9163 23.3597C38.3104 17.4492 31.0865 18.5657 22.5492 24.4761C12.9611 31.109 12.173 40.894 15.0626 47.1329C17.6895 52.7806 29.7074 61.9747 29.7074 61.9747Z" fill="#BC204B"/>
<path d="M45.0088 37.2163L42.579 29.3357H40.5432L38.1133 37.2163L35.4208 29.3357H32.9252L37.0626 41.2223H39.164L41.5939 33.67L43.8924 41.2223H46.1253L50.1969 29.3357H47.7014L45.0088 37.2163Z" fill="#3D3935"/>
<path d="M59.982 30.5835C58.9969 29.6641 57.8148 29.2043 56.37 29.2043C54.7283 29.2043 53.2835 29.7954 52.2327 30.9775C51.1163 32.1596 50.5909 33.6043 50.5909 35.3775C50.5909 37.1506 51.182 38.5954 52.2327 39.7118C53.3492 40.8282 54.7283 41.3536 56.4357 41.3536C57.9462 41.3536 59.1283 40.8939 60.1133 39.9088V41.2223H62.4775V29.3357H59.982V30.5835ZM59.0626 38.0044C58.3402 38.7267 57.5521 39.0551 56.5671 39.0551C55.5163 39.0551 54.6626 38.7267 54.0059 38.0044C53.3491 37.282 53.0208 36.4282 53.0208 35.3118C53.0208 34.1297 53.3491 33.276 54.0715 32.5536C54.7283 31.8312 55.582 31.5029 56.5671 31.5029C57.5521 31.5029 58.4059 31.8312 59.0626 32.6193C59.7193 33.3417 60.0477 34.2611 60.0477 35.3775C60.0477 36.4282 59.7193 37.3476 59.0626 38.0044Z" fill="#3D3935"/>
<path d="M65.4984 41.2223H67.9939V23.688L65.4984 23.9507V41.2223Z" fill="#3D3935"/>
<path d="M77.3193 34.3268L81.8507 29.3358H78.7641L73.6417 35.1149V23.688L71.1462 23.9507V41.2223H73.6417V38.4641L75.6775 36.2313L78.8954 41.2223H81.785L77.3193 34.3268Z" fill="#3D3935"/>
<path d="M85.9223 29.3357H83.4268V41.2223H85.9223V29.3357Z" fill="#3D3935"/>
<path d="M85.791 25.0671C85.1343 24.4104 84.0835 24.4761 83.4925 25.0671C83.1641 25.3955 83.0328 25.7895 83.0328 26.1835C83.0328 26.6432 83.1641 27.0373 83.4925 27.2999C83.8208 27.6283 84.2149 27.7596 84.6746 27.7596C85.1343 27.7596 85.5283 27.6283 85.8567 27.2999C86.185 26.9716 86.3164 26.5775 86.3164 26.1178C86.2507 25.7895 86.1193 25.3955 85.791 25.0671Z" fill="#3D3935"/>
<path d="M91.5044 35.3118C91.5044 34.1297 91.8328 33.2103 92.4238 32.5536C93.0149 31.8969 93.8029 31.5685 94.788 31.5685C96.4298 31.5685 97.2835 32.6193 97.2835 34.7864V41.2223H99.7791V34.1954C99.7791 32.5536 99.385 31.3058 98.597 30.4521C97.8089 29.5984 96.7581 29.1387 95.379 29.1387C93.8029 29.1387 92.5552 29.664 91.5701 30.7148V29.27H89.0746V41.1566H91.5701V35.3118H91.5044Z" fill="#3D3935"/>
<path d="M111.075 30.5178C110.09 29.5984 108.842 29.2043 107.397 29.2043C105.821 29.2043 104.442 29.7954 103.325 30.9118C102.275 32.0282 101.684 33.473 101.684 35.1148C101.684 36.8223 102.275 38.267 103.325 39.3835C104.442 40.4999 105.821 41.0253 107.397 41.0253C108.842 41.0253 110.024 40.5656 111.009 39.7118V40.5655C111.009 41.4193 110.746 42.1417 110.09 42.7327C109.498 43.3238 108.579 43.5864 107.463 43.5864C106.215 43.5864 104.901 43.1924 103.522 42.47L103.194 42.273L102.603 44.5715L102.8 44.7029C104.179 45.5566 105.821 45.9506 107.528 45.9506C109.498 45.9506 110.943 45.4253 111.928 44.3745C112.848 43.3238 113.373 41.879 113.373 40.1059V29.4014H110.943V30.5178H111.075ZM110.155 37.676C109.498 38.3327 108.71 38.6611 107.66 38.6611C106.675 38.6611 105.887 38.3327 105.23 37.676C104.573 37.0193 104.245 36.1655 104.245 35.0491C104.245 33.9984 104.573 33.2103 105.23 32.5536C105.887 31.8969 106.675 31.5685 107.66 31.5685C108.645 31.5685 109.498 31.8969 110.155 32.5536C110.812 33.2103 111.14 33.9984 111.14 35.0491C111.14 36.0999 110.812 36.9536 110.155 37.676Z" fill="#3D3935"/>
<path d="M83.8865 60.5955C83.3611 60.5955 83.0328 60.4642 82.8357 60.1358C82.6387 59.8075 82.5074 59.2821 82.5074 58.6254V52.5179H86.2507V50.8761H82.5074V46.8044L80.6029 47.0015V50.8761H79.1581V52.5179H80.6029V58.8224C80.6029 61.1866 81.588 62.303 83.5581 62.303C84.5432 62.303 85.4626 62.0403 86.3164 61.5806L85.791 59.9388C85.1343 60.3985 84.4775 60.5955 83.8865 60.5955Z" fill="#3D3935"/>
<path d="M95.7074 50.7447C93.8686 50.7447 92.4895 51.4014 91.5701 52.7148H91.5044V45.0969H91.4387L89.5999 45.2939V62.1716H91.5044V56.4581C91.5044 55.2104 91.8328 54.2253 92.4895 53.5029C93.1462 52.7805 94.0656 52.4521 95.182 52.4521C97.0208 52.4521 97.9402 53.6342 97.9402 55.9328V62.1716H99.8447V55.4074C99.8447 53.8313 99.4507 52.6492 98.7283 51.9268C98.0059 51.1387 96.9552 50.7447 95.7074 50.7447Z" fill="#3D3935"/>
<path d="M125.851 60.5955C125.325 60.5955 124.997 60.4642 124.8 60.1358C124.603 59.8075 124.472 59.2821 124.472 58.6254V52.5179H128.215V50.8761H124.472V46.8044L122.567 47.0015V50.8761H121.122V52.5179H122.567V58.8224C122.567 61.1866 123.552 62.303 125.522 62.303C126.507 62.303 127.427 62.0403 128.281 61.5806L127.755 59.9388C127.099 60.3985 126.442 60.5955 125.851 60.5955Z" fill="#3D3935"/>
<path d="M139.051 52.5834C138.066 51.3357 136.752 50.7446 135.11 50.7446C133.534 50.7446 132.221 51.3357 131.17 52.4521C130.119 53.5685 129.594 54.9476 129.594 56.6551C129.594 58.3625 130.119 59.7417 131.17 60.7924C132.221 61.8432 133.534 62.3685 135.11 62.3685C136.752 62.3685 138.066 61.7118 139.051 60.4641V62.2372H140.89V50.9417H138.985V52.5834H139.051ZM138 59.479C137.278 60.2014 136.358 60.5954 135.307 60.5954C134.191 60.5954 133.272 60.2014 132.549 59.479C131.827 58.7566 131.498 57.7715 131.498 56.5894C131.498 55.3417 131.893 54.3566 132.615 53.6342C133.337 52.8461 134.257 52.5178 135.373 52.5178C136.49 52.5178 137.343 52.9118 138.066 53.6999C138.788 54.4879 139.116 55.473 139.116 56.6551C139.116 57.7715 138.788 58.7566 138 59.479Z" fill="#3D3935"/>
<path d="M144.567 45.3596V62.2372H146.406V45.0969H146.34L144.567 45.3596Z" fill="#3D3935"/>
<path d="M159.934 50.876H157.636L152.119 57.0492H152.054V45.0969L150.215 45.3596V62.2372H152.054V59.676L154.418 57.0492H154.484L157.833 62.2372H160L155.731 55.6044L159.934 50.876Z" fill="#3D3935"/>
<path d="M112.06 52.3208C111.075 51.27 109.827 50.7446 108.251 50.7446C106.675 50.7446 105.427 51.27 104.376 52.3864C103.325 53.5028 102.866 54.882 102.866 56.5238C102.866 58.2312 103.391 59.6103 104.442 60.6611C105.492 61.7118 106.872 62.3029 108.448 62.3029C110.418 62.3029 111.928 61.5805 113.045 60.2014L111.731 59.0849C110.943 60.1357 109.892 60.5954 108.579 60.5954C107.528 60.5954 106.675 60.267 106.018 59.676C105.361 59.0193 104.901 58.2312 104.77 57.1148H113.504V56.8521C113.504 56.6551 113.504 56.4581 113.504 56.3924C113.504 54.7506 113.045 53.3715 112.06 52.3208ZM111.206 55.6044H104.836C105.033 54.6193 105.427 53.8969 106.084 53.3715C106.675 52.8461 107.397 52.5834 108.185 52.5834C108.251 52.5834 108.316 52.5834 108.382 52.5834C109.301 52.5834 110.024 52.8461 110.615 53.4372C111.206 53.9625 111.534 54.7506 111.731 55.67H111.206V55.6044Z" fill="#3D3935"/>
<path d="M105.427 71.1687H105.952V74.3209H105.427V73.7956C105.164 74.1239 104.77 74.3209 104.31 74.3209C103.851 74.3209 103.522 74.1896 103.194 73.8612C102.931 73.5985 102.734 73.2045 102.734 72.6791C102.734 72.2194 102.866 71.8254 103.194 71.497C103.457 71.1687 103.851 71.0374 104.31 71.0374C104.77 71.0374 105.098 71.2344 105.427 71.5627V71.1687ZM104.376 73.9269C104.639 73.9269 104.901 73.7956 105.098 73.5985C105.295 73.4015 105.427 73.1388 105.427 72.8105C105.427 72.4821 105.295 72.2194 105.098 72.0224C104.901 71.8254 104.639 71.6941 104.31 71.6941C103.982 71.6941 103.785 71.8254 103.522 72.0224C103.325 72.2194 103.194 72.4821 103.194 72.8762C103.194 73.2045 103.325 73.4672 103.522 73.6642C103.785 73.7956 104.048 73.9269 104.376 73.9269Z" fill="#141B4D"/>
<path d="M133.928 74.3866C133.469 74.3866 133.075 74.2553 132.812 73.9269C132.549 73.5986 132.352 73.2702 132.352 72.7448C132.352 72.2194 132.484 71.8911 132.812 71.5627C133.14 71.2344 133.469 71.103 133.928 71.103C134.191 71.103 134.388 71.1687 134.651 71.2344C134.848 71.3001 135.045 71.4971 135.242 71.6284L134.848 71.9568C134.651 71.6941 134.322 71.5627 133.994 71.5627C133.666 71.5627 133.403 71.6941 133.206 71.8911C133.009 72.0881 132.878 72.3508 132.878 72.6792C132.878 73.0075 133.009 73.2702 133.206 73.4672C133.403 73.6642 133.666 73.7956 133.994 73.7956C134.388 73.7956 134.651 73.6642 134.913 73.4015L135.307 73.7299C135.176 73.8612 134.979 73.9926 134.782 74.1239C134.454 74.321 134.257 74.3866 133.928 74.3866Z" fill="#141B4D"/>
<path d="M137.409 74.3866C136.949 74.3866 136.555 74.2553 136.227 73.9269C135.898 73.5986 135.767 73.2045 135.767 72.7448C135.767 72.2851 135.898 71.8911 136.227 71.5627C136.555 71.2344 136.949 71.103 137.409 71.103C137.869 71.103 138.263 71.2344 138.591 71.5627C138.919 71.8911 139.051 72.2851 139.051 72.7448C139.051 73.2045 138.919 73.5986 138.591 73.9269C138.263 74.2553 137.869 74.3866 137.409 74.3866ZM137.409 73.9269C137.737 73.9269 138 73.7956 138.197 73.5986C138.394 73.4016 138.525 73.1389 138.525 72.8105C138.525 72.4821 138.394 72.2195 138.197 72.0224C138 71.8254 137.737 71.6941 137.409 71.6941C137.081 71.6941 136.818 71.8254 136.621 72.0224C136.424 72.2195 136.292 72.4821 136.292 72.8105C136.292 73.1389 136.424 73.4016 136.621 73.5986C136.818 73.7956 137.081 73.9269 137.409 73.9269Z" fill="#141B4D"/>
<path d="M143.582 71.1687C144.304 71.1687 144.698 71.6284 144.698 72.5478V74.3866H144.173V72.6792C144.173 72.3508 144.107 72.0881 143.976 71.8911C143.845 71.7598 143.648 71.6284 143.385 71.6284C143.122 71.6284 142.925 71.7598 142.728 71.9568C142.531 72.1538 142.466 72.4165 142.466 72.8105V74.3866H141.94V72.6792C141.94 72.0224 141.678 71.6941 141.218 71.6941C140.955 71.6941 140.758 71.8254 140.561 72.0224C140.364 72.2195 140.298 72.4821 140.298 72.8762V74.4523H139.773V71.3001H140.298V71.8254C140.43 71.6284 140.561 71.4971 140.758 71.3657C140.955 71.2344 141.152 71.2344 141.349 71.2344C141.875 71.2344 142.203 71.4314 142.334 71.8254C142.728 71.3657 143.122 71.1687 143.582 71.1687Z" fill="#141B4D"/>
<path d="M147.26 71.1687C147.719 71.1687 148.048 71.3001 148.376 71.6284C148.639 71.9568 148.836 72.3508 148.836 72.8105C148.836 73.2702 148.704 73.6642 148.376 73.9926C148.113 74.2553 147.719 74.4523 147.26 74.4523C146.8 74.4523 146.472 74.2553 146.209 73.9269V75.7H145.684V71.2344H146.209V71.6941C146.472 71.3001 146.8 71.1687 147.26 71.1687ZM147.194 73.9269C147.522 73.9269 147.785 73.7956 147.982 73.5986C148.179 73.4015 148.31 73.1389 148.31 72.8105C148.31 72.4821 148.179 72.1538 147.982 71.9568C147.785 71.7598 147.522 71.6284 147.194 71.6284C146.866 71.6284 146.669 71.7598 146.472 71.9568C146.275 72.1538 146.143 72.4821 146.143 72.7448C146.143 73.0075 146.275 73.3359 146.472 73.5329C146.669 73.7956 146.931 73.9269 147.194 73.9269Z" fill="#141B4D"/>
<path d="M152.054 71.1687H152.579V74.3209H152.054V73.7956C151.791 74.1239 151.397 74.3209 150.937 74.3209C150.478 74.3209 150.149 74.1896 149.821 73.8612C149.558 73.5985 149.361 73.2045 149.361 72.6791C149.361 72.2194 149.492 71.8254 149.821 71.497C150.084 71.1687 150.478 71.0374 150.937 71.0374C151.397 71.0374 151.725 71.2344 152.054 71.5627V71.1687ZM151.003 73.9269C151.266 73.9269 151.528 73.7956 151.725 73.5985C151.922 73.4015 152.054 73.1388 152.054 72.8105C152.054 72.4821 151.922 72.2194 151.725 72.0224C151.528 71.8254 151.266 71.6941 150.937 71.6941C150.609 71.6941 150.412 71.8254 150.149 72.0224C149.952 72.2194 149.821 72.4821 149.821 72.8762C149.821 73.2045 149.952 73.4672 150.149 73.6642C150.478 73.7956 150.74 73.9269 151.003 73.9269Z" fill="#141B4D"/>
<path d="M155.272 71.1687C155.6 71.1687 155.928 71.3 156.125 71.4971C156.322 71.6941 156.454 72.0224 156.454 72.4821V74.3866H155.928V72.6792C155.928 72.0224 155.666 71.6941 155.14 71.6941C154.812 71.6941 154.615 71.8254 154.418 72.0224C154.221 72.2195 154.155 72.4821 154.155 72.8762V74.4523H153.564V71.3001H154.089V71.8254C154.352 71.3657 154.746 71.1687 155.272 71.1687Z" fill="#141B4D"/>
<path d="M159.409 71.1687H159.934L158.161 75.6344H157.636L158.227 74.1896L156.913 71.1687H157.504L158.555 73.5986L159.409 71.1687Z" fill="#141B4D"/>
<path d="M108.842 74.321H107.331V71.8254H109.827V73.3359C109.892 73.8613 109.433 74.321 108.842 74.321Z" fill="#141B4D"/>
<path d="M111.666 74.321H110.155V71.8254H112.651V73.3359C112.651 73.8613 112.191 74.321 111.666 74.321Z" fill="#434971"/>
<path d="M114.489 74.321H112.979V71.8254H115.475V73.3359C115.475 73.8613 115.015 74.321 114.489 74.321Z" fill="#696D8D"/>
<path d="M111.666 71.5627H110.155V69.0671H112.651V70.5776C112.651 71.103 112.191 71.5627 111.666 71.5627Z" fill="#8E9FC7"/>
<path d="M114.489 71.5627H112.979V69.0671H115.475V70.5776C115.475 71.103 115.015 71.5627 114.489 71.5627Z" fill="#A5B2D2"/>
<path d="M114.489 68.7387H112.979V66.2432H115.475V67.7536C115.475 68.3447 115.015 68.7387 114.489 68.7387Z" fill="#C9D1D8"/>
<path d="M117.773 73.336L122.173 66.3091H116.328V67.2942H120.269L115.934 74.321H120.86C121.451 74.321 121.91 73.8613 121.91 73.2703H117.773V73.336Z" fill="#141B4D"/>
<path d="M124.34 70.9715C125.391 70.6432 126.048 69.7238 126.048 68.673C126.048 68.0163 125.785 67.4253 125.325 66.9656C124.8 66.5059 124.143 66.2432 123.289 66.2432C123.158 66.2432 122.764 66.2432 122.764 66.2432C122.567 66.5715 122.37 66.8999 122.173 67.2282H123.289C123.815 67.2282 124.275 67.3596 124.537 67.688C124.8 67.9506 124.931 68.279 124.931 68.673C124.931 69.6581 124.143 70.1178 123.289 70.1178H121.845V67.8193C121.451 68.476 121.122 68.9357 120.794 69.4611V72.8103H121.845V71.1685H123.158L124.997 73.8611C125.194 74.1895 125.588 74.3865 125.982 74.3865H126.704L124.34 70.9715Z" fill="#8E9FC7"/>
<path d="M126.31 67.3597C126.507 67.294 126.704 67.294 126.836 67.294C127.886 67.294 128.806 67.8194 129.397 68.6731L129.463 68.8045L130.448 68.3448L130.316 68.1477C129.528 66.7686 128.018 66.0463 126.442 66.1776C126.048 66.1776 125.719 66.2433 125.457 66.3746C125.522 66.4403 125.588 66.506 125.654 66.5716C125.982 66.8343 126.113 67.0313 126.31 67.3597Z" fill="#C9D1D8"/>
<path d="M130.907 70.1179H126.31C126.31 70.709 126.77 71.1687 127.361 71.1687H129.66C129.463 71.694 129.134 72.2194 128.675 72.6135C128.084 73.0732 127.361 73.3358 126.573 73.2702L127.295 74.3209C129.003 74.0582 130.382 72.8105 130.776 71.1687C130.907 70.8403 130.907 70.4463 130.907 70.1179Z" fill="#C9D1D8"/>
</svg>
