<svg width="72" height="56" viewBox="0 0 72 56" fill="none" xmlns="http://www.w3.org/2000/svg">
<path fill-rule="evenodd" clip-rule="evenodd" d="M34.2358 10.5947H12.528C12.0887 10.5947 11.8421 11.1121 12.1131 11.4662L22.9041 25.6262C23.0094 25.7644 23.2136 25.7644 23.3189 25.6262L25.5861 22.6483C25.6593 22.5509 25.6593 22.414 25.5861 22.3166L19.8598 14.8088C19.725 14.6323 19.8483 14.373 20.0666 14.373H31.7683C31.8492 14.373 31.9263 14.3348 31.9751 14.269L34.4438 11.0305C34.5787 10.8528 34.4554 10.5947 34.2358 10.5947Z" fill="#03D8C3"/>
<path fill-rule="evenodd" clip-rule="evenodd" d="M49.9149 30.3739L47.5977 33.3404C47.5215 33.4391 47.5215 33.5759 47.5977 33.6733L53.4629 41.1838C53.6008 41.3614 53.4747 41.6206 53.2501 41.6206H40.3323C40.1668 41.6206 40.0105 41.5429 39.908 41.4127L31.2988 30.3739C31.191 30.2357 30.9822 30.2357 30.8745 30.3739L28.5573 33.3404C28.4811 33.4391 28.4811 33.5759 28.556 33.6733L37.5435 45.1975C37.646 45.3291 37.8023 45.4054 37.9678 45.4054H60.9608C61.4088 45.4054 61.661 44.8884 61.3851 44.5345L50.3392 30.3739C50.2315 30.2357 50.0226 30.2357 49.9149 30.3739Z" fill="#03D8C3"/>
<path fill-rule="evenodd" clip-rule="evenodd" d="M40.0457 18.2692L37.5603 21.3361C37.4797 21.4368 37.4797 21.5782 37.5617 21.6789L41.9883 27.1354C42.1042 27.2782 42.329 27.2796 42.4449 27.1368L44.9374 24.0685C45.0208 23.9678 45.0208 23.8264 44.9374 23.7244L40.5024 18.2692C40.3864 18.1264 40.1616 18.1264 40.0457 18.2692Z" fill="#03D8C3"/>
<path fill-rule="evenodd" clip-rule="evenodd" d="M45.4088 0.207291L3.11308 55.1315C2.84154 55.4844 3.08981 56 3.53074 56H26.1733C26.3363 56 26.4914 55.9239 26.591 55.7927L34.6894 45.276C34.7657 45.1789 34.7657 45.0424 34.6907 44.9454L32.4084 41.9777C32.3024 41.8399 32.0968 41.8399 31.9908 41.9777L24.2635 52.0182C24.1639 52.1481 24.0088 52.2242 23.8459 52.2242H11.13C10.9102 52.2242 10.786 51.967 10.9218 51.7899L47.7363 3.98182C47.8371 3.85193 47.991 3.77584 48.1539 3.77584H60.8698C61.0909 3.77584 61.215 4.03299 61.0793 4.2101L37.3194 35.0623C37.2444 35.1594 37.2444 35.2958 37.3194 35.3929L39.6004 38.3606C39.7064 38.4997 39.912 38.4997 40.018 38.3619L68.8867 0.869834C69.1582 0.515603 68.9113 0 68.469 0H45.8264C45.6635 0 45.5096 0.0760941 45.4088 0.207291Z" fill="#6200EE"/>
</svg>
