<svg width="210" height="56" viewBox="0 0 210 56" fill="none" xmlns="http://www.w3.org/2000/svg">
<path fill-rule="evenodd" clip-rule="evenodd" d="M34.4669 10.5947H12.5983C12.1558 10.5947 11.9073 11.1121 12.1804 11.4662L23.0512 25.6262C23.1573 25.7644 23.3631 25.7644 23.4692 25.6262L25.7531 22.6483C25.8269 22.5509 25.8269 22.414 25.7531 22.3166L19.9845 14.8088C19.8486 14.6323 19.9728 14.373 20.1928 14.373H31.9811C32.0626 14.373 32.1403 14.3348 32.1894 14.269L34.6765 11.0305C34.8124 10.8528 34.6882 10.5947 34.4669 10.5947Z" fill="#03D8C3"/>
<path fill-rule="evenodd" clip-rule="evenodd" d="M50.262 30.3739L47.9277 33.3404C47.8509 33.4391 47.8509 33.5759 47.9277 33.6733L53.8363 41.1838C53.9752 41.3614 53.8482 41.6206 53.6219 41.6206H40.6084C40.4417 41.6206 40.2842 41.5429 40.181 41.4127L31.508 30.3739C31.3995 30.2357 31.189 30.2357 31.0805 30.3739L28.7462 33.3404C28.6695 33.4391 28.6695 33.5759 28.7449 33.6733L37.799 45.1975C37.9022 45.3291 38.0597 45.4054 38.2264 45.4054H61.3898C61.841 45.4054 62.0951 44.8884 61.8172 44.5345L50.6894 30.3739C50.5809 30.2357 50.3705 30.2357 50.262 30.3739Z" fill="#03D8C3"/>
<path fill-rule="evenodd" clip-rule="evenodd" d="M40.3204 18.2692L37.8166 21.3361C37.7354 21.4368 37.7354 21.5782 37.818 21.6789L42.2774 27.1354C42.3942 27.2782 42.6206 27.2796 42.7374 27.1368L45.2484 24.0685C45.3324 23.9678 45.3324 23.8264 45.2484 23.7244L40.7805 18.2692C40.6637 18.1264 40.4372 18.1264 40.3204 18.2692Z" fill="#03D8C3"/>
<path fill-rule="evenodd" clip-rule="evenodd" d="M45.7229 0.207291L3.11392 55.1315C2.84037 55.4844 3.09047 56 3.53467 56H26.345C26.5091 56 26.6655 55.9239 26.7658 55.7927L34.9241 45.276C35.001 45.1789 35.001 45.0424 34.9254 44.9454L32.6263 41.9777C32.5195 41.8399 32.3124 41.8399 32.2055 41.9777L24.421 52.0182C24.3207 52.1481 24.1644 52.2242 24.0003 52.2242H11.1902C10.9688 52.2242 10.8437 51.967 10.9805 51.7899L48.0677 3.98182C48.1693 3.85193 48.3243 3.77584 48.4884 3.77584H61.2985C61.5212 3.77584 61.6463 4.03299 61.5095 4.2101L37.5737 35.0623C37.4981 35.1594 37.4981 35.2958 37.5737 35.3929L39.8715 38.3606C39.9783 38.4997 40.1854 38.4997 40.2923 38.3619L69.3748 0.869834C69.6483 0.515603 69.3995 0 68.954 0H46.1437C45.9795 0 45.8245 0.0760941 45.7229 0.207291Z" fill="#6200EE"/>
<path fill-rule="evenodd" clip-rule="evenodd" d="M207 20.1993V16.9213C207 16.771 206.88 16.6487 206.732 16.6487H190.646C190.498 16.6487 190.378 16.771 190.378 16.9213V39.0788C190.378 39.229 190.498 39.3514 190.646 39.3514H206.732C206.88 39.3514 207 39.229 207 39.0788V35.8008C207 35.6505 206.88 35.5282 206.732 35.5282H194.813C194.665 35.5282 194.545 35.4071 194.545 35.2555V30.0879C194.545 29.9376 194.665 29.8152 194.813 29.8152H205.317C205.464 29.8152 205.585 29.6929 205.585 29.5426V26.2646C205.585 26.1143 205.464 25.992 205.317 25.992H194.813C194.665 25.992 194.545 25.871 194.545 25.7194V20.7445C194.545 20.5943 194.665 20.4719 194.813 20.4719H206.732C206.88 20.4719 207 20.3496 207 20.1993Z" fill="#6200EE"/>
<path fill-rule="evenodd" clip-rule="evenodd" d="M137.488 20.1993V16.9213C137.488 16.771 137.368 16.6487 137.22 16.6487H121.134C120.986 16.6487 120.866 16.771 120.866 16.9213V39.0788C120.866 39.229 120.986 39.3514 121.134 39.3514H137.22C137.368 39.3514 137.488 39.229 137.488 39.0788V35.8008C137.488 35.6505 137.368 35.5282 137.22 35.5282H125.301C125.153 35.5282 125.033 35.4071 125.033 35.2555V30.0879C125.033 29.9376 125.153 29.8152 125.301 29.8152H135.805C135.953 29.8152 136.073 29.6929 136.073 29.5426V26.2646C136.073 26.1143 135.953 25.992 135.805 25.992H125.301C125.153 25.992 125.033 25.871 125.033 25.7194V20.7445C125.033 20.5943 125.153 20.4719 125.301 20.4719H137.22C137.368 20.4719 137.488 20.3496 137.488 20.1993Z" fill="#6200EE"/>
<path fill-rule="evenodd" clip-rule="evenodd" d="M157.465 16.9213V32.1544L145.54 16.7537C145.489 16.6872 145.411 16.6487 145.326 16.6487H142.291C142.142 16.6487 142.022 16.771 142.022 16.9213V39.0788C142.022 39.229 142.142 39.3514 142.291 39.3514H145.952C146.101 39.3514 146.223 39.229 146.223 39.0788V23.8457L158.149 39.2463C158.2 39.3128 158.279 39.3514 158.362 39.3514H161.397C161.546 39.3514 161.667 39.229 161.667 39.0788V16.9213C161.667 16.771 161.546 16.6487 161.397 16.6487H157.736C157.587 16.6487 157.465 16.771 157.465 16.9213Z" fill="#6200EE"/>
<path fill-rule="evenodd" clip-rule="evenodd" d="M116.317 24.9162C116.067 29.036 112.671 32.1517 108.781 32.1517H103.96C103.818 32.1517 103.703 32.2741 103.703 32.4243V39.0788C103.703 39.229 103.589 39.3514 103.448 39.3514H99.9677C99.8249 39.3514 99.7109 39.229 99.7109 39.0788V16.9213C99.7109 16.771 99.8249 16.6487 99.9677 16.6487H109.032C113.225 16.6487 116.593 20.4014 116.317 24.9162ZM108.481 20.4719H103.96C103.818 20.4719 103.703 20.5943 103.703 20.7445V28.0559C103.703 28.2075 103.818 28.3285 103.96 28.3285H108.64C110.803 28.3285 112.533 26.3577 112.323 24.0146C112.138 21.972 110.414 20.4719 108.481 20.4719Z" fill="#6200EE"/>
<path fill-rule="evenodd" clip-rule="evenodd" d="M177.39 35.6532C173.443 35.6532 170.242 32.2265 170.242 27.9996C170.242 23.7727 173.443 20.346 177.39 20.346C179.764 20.346 181.865 21.5873 183.165 23.4949C183.265 23.6415 183.472 23.6531 183.58 23.5129L185.705 20.7525C185.785 20.6508 185.781 20.5029 185.695 20.4064C183.575 18.0203 180.477 16.5462 177.035 16.6542C171.248 16.8369 166.443 21.6606 166.21 27.5301C165.951 34.0132 171.056 39.3514 177.39 39.3514C180.733 39.3514 183.73 37.8605 185.779 35.504C185.864 35.4075 185.866 35.2609 185.788 35.1593L183.647 32.3808C183.538 32.238 183.329 32.2522 183.23 32.4027C181.936 34.3669 179.806 35.6532 177.39 35.6532Z" fill="#6200EE"/>
<path fill-rule="evenodd" clip-rule="evenodd" d="M86.6804 27.8325L95.119 17.0889C95.2594 16.9107 95.131 16.6487 94.9024 16.6487H90.1898C90.1055 16.6487 90.0267 16.6886 89.9745 16.7537L84.06 24.2832C83.9504 24.4228 83.7378 24.4228 83.6282 24.2832L77.7137 16.7537C77.6629 16.6886 77.5827 16.6487 77.4984 16.6487H72.7845C72.5572 16.6487 72.4288 16.9107 72.5692 17.0889L81.0078 27.8325C81.0854 27.9309 81.0854 28.0692 81.0078 28.1676L72.5692 38.9112C72.4288 39.0907 72.5572 39.3514 72.7845 39.3514H77.4984C77.5827 39.3514 77.6629 39.3128 77.7137 39.2463L83.6282 31.7182C83.7378 31.5786 83.9504 31.5786 84.06 31.7182L89.9745 39.2463C90.0253 39.3128 90.1055 39.3514 90.1898 39.3514H94.9024C95.131 39.3514 95.2594 39.0907 95.119 38.9112L86.6804 28.1676C86.6028 28.0692 86.6028 27.9309 86.6804 27.8325Z" fill="#6200EE"/>
</svg>
