<svg width="191" height="44" viewBox="0 0 191 44" fill="none" xmlns="http://www.w3.org/2000/svg">
<path d="M90.9141 32.3006C90.9141 25.3081 90.9141 18.3155 90.9141 11.3229C91.0103 11.3229 91.0873 11.3229 91.1643 11.3229C93.705 11.3229 96.2458 11.3039 98.7866 11.3229C100.827 11.3418 102.829 11.6829 104.638 12.6683C107.063 13.9948 108.603 16.0225 109.315 18.6566C109.585 19.6609 109.7 20.6653 109.7 21.7075C109.72 23.6594 109.392 25.5544 108.411 27.2978C107.044 29.7234 104.946 31.2015 102.232 31.8837C101.116 32.168 99.9607 32.3006 98.8058 32.3006C96.2266 32.3006 93.6473 32.3006 91.068 32.3006C91.0488 32.3006 90.9911 32.3006 90.9141 32.3006ZM94.7445 28.9086C95.8993 28.9086 97.035 28.9086 98.1514 28.9086C99.0753 28.8896 99.9992 28.8328 100.904 28.6433C103.079 28.1695 104.619 26.9567 105.369 24.8722C106.101 22.8445 106.082 20.7979 105.35 18.7703C104.811 17.2732 103.81 16.1362 102.309 15.4729C101.25 15.0181 100.115 14.8097 98.9598 14.7907C97.6317 14.7528 96.3228 14.7718 94.9947 14.7718C94.9177 14.7718 94.8407 14.7718 94.7637 14.7718C94.7445 19.4714 94.7445 24.171 94.7445 28.9086Z" fill="#154963"/>
<path d="M132.856 32.3011C131.509 32.3011 130.2 32.3011 128.891 32.3011C128.718 32.3011 128.718 32.1874 128.66 32.0927C128.102 30.8988 127.544 29.705 126.985 28.4922C126.908 28.3027 126.812 28.2458 126.6 28.2458C123.713 28.2458 120.845 28.2458 117.958 28.2458C117.765 28.2458 117.669 28.3026 117.592 28.4732C117.034 29.6671 116.476 30.8799 115.918 32.0737C115.841 32.2443 115.744 32.3011 115.552 32.3011C114.378 32.2822 113.204 32.3011 112.049 32.3011C111.972 32.3011 111.875 32.3011 111.76 32.3011C111.933 31.9221 112.106 31.5621 112.28 31.221C115.109 25.3275 117.939 19.434 120.768 13.5405C121.095 12.8583 121.423 12.1761 121.75 11.4939C121.808 11.3613 121.885 11.3044 122.019 11.3234C122.289 11.3423 122.616 11.2476 122.808 11.3802C123.001 11.4939 123.059 11.8161 123.174 12.0435C126.369 18.7328 129.565 25.4033 132.76 32.0927C132.779 32.1495 132.798 32.2064 132.856 32.3011ZM122.289 18.2022C121.23 20.4763 120.21 22.7313 119.171 24.9674C121.269 24.9674 123.328 24.9674 125.426 24.9674C124.368 22.7124 123.347 20.4763 122.289 18.2022Z" fill="#154963"/>
<path d="M86.4679 32.3019C85.6402 32.3019 84.8703 32.3019 84.0811 32.3019C83.5807 32.3019 83.0802 32.3019 82.5797 32.3019C82.4258 32.3019 82.3488 32.264 82.291 32.1124C81.7136 30.8807 81.1361 29.6489 80.5779 28.4172C80.5202 28.2845 80.4432 28.2466 80.3085 28.2466C77.3827 28.2466 74.457 28.2466 71.5313 28.2466C71.3581 28.2466 71.3003 28.3224 71.2426 28.4551C70.6844 29.6679 70.1069 30.8996 69.5487 32.1124C69.491 32.264 69.414 32.3019 69.2408 32.3019C67.9704 32.3019 66.7 32.3019 65.3911 32.3019C65.4296 32.2072 65.4489 32.1503 65.4874 32.0935C68.6441 25.5178 71.8008 18.9421 74.9575 12.3664C75.0922 12.0632 75.2462 11.76 75.4002 11.4758C75.4387 11.4 75.5349 11.3431 75.6119 11.3431C75.8236 11.3242 76.0354 11.3431 76.2278 11.3242C76.4011 11.3052 76.4781 11.381 76.5358 11.5137C77.171 12.8591 77.8254 14.2046 78.4606 15.55C80.9821 20.8182 83.5037 26.0863 86.0059 31.3355C86.1599 31.6576 86.3139 31.9608 86.4679 32.3019ZM79.0381 24.9872C77.9987 22.7132 76.9593 20.4771 75.9006 18.2031C74.842 20.496 73.8218 22.7321 72.7632 24.9872C74.8805 24.9872 76.94 24.9872 79.0381 24.9872Z" fill="#154963"/>
<path d="M61.7338 14.3968C60.8291 15.0032 59.9244 15.6096 59.0583 16.197C58.6733 15.837 58.3461 15.458 57.9611 15.1548C57.0372 14.4726 55.9401 14.302 54.8237 14.3968C54.1307 14.4536 53.5148 14.7 52.9758 15.1548C52.1289 15.8749 52.2059 17.334 52.8411 17.9783C53.3993 18.5468 54.073 18.8311 54.7659 19.1343C55.9593 19.627 57.1719 20.0818 58.3461 20.5935C59.3855 21.0483 60.3479 21.6168 61.1948 22.3748C62.1187 23.2086 62.6192 24.2508 62.7924 25.4826C62.9271 26.5248 62.8886 27.5481 62.5422 28.5525C61.907 30.4096 60.5789 31.6035 58.7118 32.2099C57.3259 32.6647 55.9016 32.7405 54.4579 32.6457C53.2068 32.5699 51.9942 32.2857 50.8778 31.7172C49.2032 30.8644 47.9713 29.5948 47.1821 27.8892C48.1445 27.3018 49.1069 26.7143 50.0501 26.1269C50.3388 26.5438 50.5891 26.9607 50.897 27.3397C51.7439 28.3819 52.8603 28.9884 54.1885 29.1968C55.1509 29.3484 56.094 29.3674 57.0372 29.1021C58.5771 28.6852 59.424 26.9796 58.808 25.5584C58.6156 25.0846 58.2498 24.7625 57.8456 24.4782C56.864 23.815 55.7668 23.417 54.6697 23.0001C53.3031 22.4885 51.9557 21.9389 50.743 21.0862C49.5304 20.2145 48.799 19.0964 48.6065 17.6372C48.2215 14.7 49.5882 12.5586 52.3406 11.4785C53.4378 11.0426 54.5734 10.9479 55.7476 11.0237C56.9217 11.0995 58.0381 11.3458 59.0775 11.8954C60.1169 12.407 61.2911 13.5251 61.7338 14.3968Z" fill="#154963"/>
<path d="M172.584 32.3018C171.737 32.3018 170.909 32.3018 170.082 32.3018C170.005 32.3018 169.928 32.207 169.889 32.1312C169.408 31.0511 168.927 29.9709 168.446 28.8718C168.215 28.3412 167.964 27.8106 167.733 27.28C167.676 27.1663 167.618 27.1284 167.502 27.1284C164.423 27.1284 161.343 27.1284 158.263 27.1284C158.129 27.1284 158.09 27.1852 158.032 27.2989C157.32 28.9097 156.608 30.5205 155.896 32.1312C155.838 32.2828 155.761 32.3207 155.588 32.3207C154.818 32.3207 154.067 32.3207 153.278 32.3207C153.413 31.9986 153.548 31.7143 153.682 31.4111C156.627 24.7786 159.553 18.165 162.498 11.5324C162.575 11.3808 162.652 11.3429 162.825 11.324C163.152 11.305 163.306 11.3808 163.46 11.703C165.866 17.1606 168.311 22.6372 170.736 28.0948C171.333 29.4403 171.93 30.7668 172.526 32.1123C172.546 32.1502 172.565 32.207 172.584 32.3018ZM166.733 24.9491C165.462 21.9929 164.192 19.0746 162.902 16.0994C161.613 19.0746 160.342 21.9929 159.072 24.9491C161.632 24.9491 164.153 24.9491 166.733 24.9491Z" fill="#154963"/>
<path d="M139.766 32.2817C138.938 32.2817 138.149 32.2817 137.341 32.2817C137.341 25.2891 137.341 18.3155 137.341 11.3229C137.437 11.3229 137.514 11.3229 137.591 11.3229C139.824 11.3229 142.057 11.3039 144.289 11.3229C147.427 11.3418 149.91 13.5021 150.487 16.0794C150.988 18.3344 150.603 20.4189 148.909 22.1434C147.87 23.2046 146.618 23.8489 145.136 24.0194C144.732 24.0573 144.309 24.0763 143.904 24.0952C142.615 24.0952 141.325 24.0952 140.055 24.0952C139.959 24.0952 139.882 24.0952 139.766 24.0952C139.766 26.843 139.766 29.5529 139.766 32.2817ZM139.766 21.897C139.824 21.897 139.862 21.916 139.901 21.916C141.325 21.916 142.75 21.916 144.174 21.916C144.751 21.916 145.31 21.8023 145.849 21.5749C148.293 20.4568 148.851 17.6522 147.773 15.6814C146.965 14.2033 145.637 13.5211 143.924 13.54C142.615 13.54 141.306 13.54 139.997 13.54C139.92 13.54 139.843 13.54 139.766 13.559C139.766 16.3257 139.766 19.0924 139.766 21.897Z" fill="#154963"/>
<path d="M183.363 32.2825C182.555 32.2825 181.766 32.2825 180.938 32.2825C180.938 32.1877 180.938 32.093 180.938 31.9982C180.938 29.2883 180.938 26.5974 180.938 23.8876C180.938 23.7549 180.9 23.6223 180.842 23.5086C178.436 19.548 176.049 15.5874 173.643 11.6079C173.585 11.5321 173.547 11.4373 173.47 11.3236C173.547 11.3047 173.604 11.3047 173.662 11.3047C174.413 11.3047 175.164 11.3047 175.934 11.3047C176.087 11.3047 176.145 11.3615 176.222 11.4752C177.935 14.2988 179.629 17.1224 181.342 19.9459C181.612 20.4007 181.9 20.8555 182.189 21.3293C182.382 21.0071 182.555 20.7229 182.728 20.4386C184.518 17.4445 186.308 14.4694 188.098 11.4752C188.175 11.3615 188.252 11.3047 188.406 11.3047C189.138 11.3236 189.85 11.3047 190.581 11.3047C190.639 11.3047 190.697 11.3047 190.793 11.3047C190.697 11.4563 190.639 11.5889 190.562 11.7026C188.214 15.5874 185.885 19.4911 183.537 23.3759C183.421 23.5654 183.383 23.736 183.383 23.9444C183.383 26.6164 183.383 29.2883 183.383 31.9603C183.363 32.093 183.363 32.1877 183.363 32.2825Z" fill="#154963"/>
<path d="M11.0027 32.8791L5.92221 28.0247L4.25038 29.7128C3.90672 28.8733 3.65595 28.0065 3.51663 27.1214C2.97793 23.6996 3.99032 20.077 6.58166 17.3761C6.6281 17.3305 6.67454 17.2848 6.72098 17.2392L13.2876 10.6055C14.1978 9.68391 14.1792 8.21482 13.2411 7.32972C12.303 6.43549 10.8077 6.45374 9.90674 7.37535L3.34016 14.0091C-1.20165 18.5897 -1.09949 25.9534 3.57236 30.4063L8.65287 35.2606L11.0027 32.8791Z" fill="#8CEBD1"/>
<path d="M23.4392 20.3109L16.8726 26.9446C14.7271 29.1072 11.4763 29.609 8.82923 28.4137C8.11406 28.0943 7.44532 27.6472 6.86018 27.0815C4.11095 24.4535 3.99949 20.1375 6.59083 17.3818C3.99949 20.0736 2.97782 23.6962 3.52581 27.118C3.78587 28.7878 4.41745 30.4029 5.42055 31.8537C5.85708 32.4833 6.36792 33.0856 6.94378 33.6422L17.1048 43.3418C18.0429 44.236 19.5382 44.2178 20.4392 43.2962C21.3494 42.3746 21.3308 40.9055 20.3927 40.0204L13.6218 33.5418C16.0645 33.1677 18.4051 32.0453 20.2627 30.1748L26.8293 23.5411C27.7395 22.6195 27.7209 21.1504 26.7829 20.2653C25.8448 19.371 24.3494 19.3984 23.4392 20.3109Z" fill="#71DAC1"/>
<path d="M10.2409 30.3129C9.64644 29.7472 9.18204 29.0993 8.8291 28.4059C11.4762 29.6012 14.727 29.1085 16.8725 26.9368L23.4391 20.3031C24.3493 19.3815 25.8446 19.3632 26.7734 20.2575C27.7115 21.1517 27.7301 22.6208 26.8199 23.5332L20.2533 30.1669C20.2069 30.2126 20.1604 30.2582 20.114 30.3038C17.3833 32.9317 12.9994 32.95 10.2409 30.3129Z" fill="#60C3B0"/>
<path d="M25.9474 11.1343L31.0279 15.9887L32.6997 14.3006C33.0434 15.1401 33.2941 16.007 33.4335 16.8921C33.9722 20.3138 32.9598 23.9364 30.3684 26.6373C30.322 26.6829 30.2756 26.7286 30.2291 26.7742L23.6625 33.3988C22.7523 34.3204 22.7709 35.7894 23.709 36.6745C24.6471 37.5688 26.1424 37.5505 27.0434 36.6289L33.6099 29.9952C38.1517 25.4146 38.0496 18.0509 33.3777 13.598L28.2972 8.74365L25.9474 11.1343Z" fill="#F19E8A"/>
<path d="M10.167 23.7365C9.2289 22.8423 9.21033 21.3732 10.1205 20.4607L16.6871 13.827C18.5354 11.9564 20.8853 10.8341 23.328 10.46L26.7646 13.6354C27.359 14.2011 27.7677 14.9037 28.1113 15.5972C25.4643 14.4019 22.2135 14.8946 20.0679 17.0663L13.5014 23.7C12.6004 24.6125 11.1051 24.6307 10.167 23.7365Z" fill="#EF876D"/>
<path d="M26.7088 13.6886C27.3033 14.2543 27.7677 14.9022 28.1206 15.5956C25.4735 14.4003 22.2227 14.893 20.0772 17.0647L13.5106 23.6984C12.6004 24.62 11.1051 24.6383 10.1763 23.7441C9.23818 22.8498 9.21961 21.3807 10.1298 20.4683L16.6964 13.8346C16.7429 13.7889 16.7893 13.7433 16.8357 13.6977C19.5664 11.0698 23.9596 11.0606 26.7088 13.6886Z" fill="#EE7460"/>
<path d="M19.8451 0.658334L29.9968 10.3671C30.5727 10.9237 31.0835 11.5168 31.52 12.1555C32.5231 13.5973 33.1547 15.2215 33.4148 16.8913C33.9535 20.3131 32.9411 23.9356 30.3497 26.6365C32.9318 23.8809 32.8296 19.5648 30.0804 16.9369C29.486 16.3712 28.8172 15.9241 28.1113 15.6047C27.7677 14.9112 27.294 14.2725 26.6996 13.6976L16.5571 3.97975C15.619 3.08552 15.6005 1.61643 16.5107 0.703958C17.4209 -0.217643 18.9163 -0.235893 19.8451 0.658334Z" fill="#EF876D"/>
</svg>
