<svg width="25" height="40" viewBox="0 0 25 40" fill="none" xmlns="http://www.w3.org/2000/svg">
<path d="M18.1532 0.0713226C20.2477 -0.34757 22.1746 1.11856 22.4678 3.42247C22.761 5.68449 21.253 7.86272 19.1585 8.28161C17.0641 8.7005 15.1372 7.23438 14.8439 4.93047C14.5507 2.66845 16.0587 0.490215 18.1532 0.0713226Z" fill="#BC204B"/>
<path d="M11.1157 5.30753C12.5818 5.13998 14.006 6.43854 14.2155 8.15599C14.4668 9.91534 13.4615 11.4652 11.9534 11.6328C10.4873 11.8004 9.06308 10.5018 8.85363 8.78433C8.60229 7.02499 9.60765 5.47509 11.1157 5.30753Z" fill="#0072CE"/>
<path d="M6.13094 10.2504C7.30384 10.0829 8.51863 11.0882 8.76997 12.4706C9.0213 13.8948 8.30919 15.1515 7.0944 15.319C5.9215 15.4866 4.7067 14.4812 4.45537 13.0989C4.20403 11.7165 4.91615 10.418 6.13094 10.2504Z" fill="#BA9CC5"/>
<path d="M3.03116 15.4028C4.16217 15.3191 5.29317 16.3244 5.50262 17.623C5.71206 18.9215 4.95807 20.0944 3.78517 20.1782C2.65416 20.262 1.52314 19.2566 1.3137 17.9581C1.14614 16.6176 1.90015 15.4866 3.03116 15.4028Z" fill="#BCE194"/>
<path d="M0.0151167 23.1104C-0.110551 22.0632 0.559669 21.1835 1.56501 21.1416C2.57035 21.0998 3.49191 21.9375 3.61758 23.0267C3.74325 24.0739 3.07303 24.9536 2.06769 24.9955C1.06234 25.0373 0.140784 24.1996 0.0151167 23.1104Z" fill="#E2A900"/>
<path d="M18.9491 39.5309C20.876 40.8713 9.27268 33.8758 7.22011 31.3625C3.7433 27.2155 4.79053 19.8011 12.2887 14.6068C19.0748 9.91521 24.9811 9.11932 24.3109 13.8947L24.1852 14.9838V15.0257C24.1852 14.9838 24.1852 14.9419 24.1852 14.9C24.4366 11.13 19.8288 11.8421 14.3832 15.6121C8.26734 19.843 7.76467 26.0844 9.6078 30.0639C11.2834 33.6664 18.9491 39.5309 18.9491 39.5309Z" fill="#BC204B"/>
</svg>
